<svg width="135" height="135" viewBox="0 0 135 135" fill="none" xmlns="http://www.w3.org/2000/svg">
<g clip-path="url(#clip0_319_113)">
<path d="M67.5 135C104.779 135 135 104.779 135 67.5C135 30.2208 104.779 0 67.5 0C30.2208 0 0 30.2208 0 67.5C0 104.779 30.2208 135 67.5 135Z" fill="#0D0D0D"/>
<path d="M100.36 40.0802C100.1 39.3302 99.79 39.1202 99.31 38.9402C98.26 38.5402 96.48 39.1402 96.48 39.1402C96.48 39.1402 33.39 61.8202 29.79 64.3302C29.01 64.8702 28.75 65.1802 28.63 65.5502C28.01 67.3402 29.95 68.1302 29.95 68.1302L46.21 73.4302C46.21 73.4302 46.82 73.5202 47.03 73.3802C50.73 71.0402 84.25 49.8802 86.18 49.1702C86.49 49.0802 86.71 49.1802 86.65 49.3902C85.88 52.1102 56.77 77.9802 56.77 77.9802C56.77 77.9802 56.66 78.1202 56.59 78.2802L56.55 78.2602L55.03 94.3902C55.03 94.3902 54.39 99.3302 59.34 94.3902C62.83 90.9002 66.2 87.9902 67.89 86.5702C73.48 90.4302 79.5 94.7002 82.09 96.9302C83.39 98.0502 84.49 98.2302 85.38 98.2002C87.84 98.1102 88.53 95.4002 88.53 95.4002C88.53 95.4002 100.03 49.1302 100.41 42.9302C100.45 42.3202 100.5 41.9402 100.5 41.5202C100.5 40.9402 100.45 40.3602 100.36 40.0802Z" fill="white"/>
</g>
<defs>
<clipPath id="clip0_319_113">
<rect width="135" height="135" fill="white"/>
</clipPath>
</defs>
</svg>
