<svg width="135" height="135" viewBox="0 0 135 135" fill="none" xmlns="http://www.w3.org/2000/svg">
<g clip-path="url(#clip0_319_116)">
<path d="M67.5 135C104.779 135 135 104.779 135 67.5C135 30.2208 104.779 0 67.5 0C30.2208 0 0 30.2208 0 67.5C0 104.779 30.2208 135 67.5 135Z" fill="#0D0D0D"/>
<path fill-rule="evenodd" clip-rule="evenodd" d="M99.97 35.8601C91.89 27.7701 81.13 23.3101 69.68 23.3101C46.08 23.3101 26.87 42.5101 26.86 66.1101C26.86 73.6501 28.83 81.0201 32.58 87.5101L26.51 109.69L49.21 103.74C55.46 107.15 62.51 108.95 69.67 108.95H69.69C93.29 108.95 112.5 89.7501 112.51 66.1401C112.51 54.7001 108.06 43.9501 99.98 35.8601H99.97ZM69.68 101.72H69.67C63.28 101.72 57.02 100 51.56 96.7601L50.26 95.9901L36.79 99.5201L40.39 86.3901L39.54 85.0401C35.98 79.3801 34.1 72.8301 34.1 66.1101C34.1 46.4901 50.07 30.5301 69.71 30.5301C79.22 30.5301 88.15 34.2401 94.87 40.9601C101.59 47.6901 105.29 56.6201 105.28 66.1301C105.28 85.7501 89.31 101.71 69.69 101.71L69.68 101.72ZM89.2 75.0701C88.13 74.5301 82.87 71.9501 81.89 71.5901C80.91 71.2301 80.2 71.0501 79.48 72.1301C78.77 73.2001 76.72 75.6101 76.09 76.3201C75.47 77.0301 74.84 77.1201 73.77 76.5901C72.7 76.0501 69.25 74.9301 65.17 71.2801C61.99 68.4401 59.84 64.9401 59.22 63.8701C58.6 62.8001 59.15 62.2201 59.69 61.6901C60.17 61.2101 60.76 60.4401 61.29 59.8201C61.82 59.2001 62 58.7501 62.36 58.0401C62.72 57.3301 62.54 56.7001 62.27 56.1701C62 55.6301 59.86 50.3701 58.97 48.2301C58.1 46.1401 57.22 46.4301 56.56 46.3901C55.94 46.3601 55.22 46.3501 54.51 46.3501C53.8 46.3501 52.64 46.6201 51.66 47.6901C50.68 48.7601 47.92 51.3501 47.92 56.6101C47.92 61.8701 51.75 66.9601 52.29 67.6701C52.82 68.3801 59.83 79.1901 70.57 83.8201C73.12 84.9201 75.12 85.5801 76.67 86.0701C79.23 86.8801 81.57 86.7701 83.41 86.4901C85.47 86.1801 89.74 83.9001 90.63 81.4001C91.52 78.9001 91.52 76.7601 91.25 76.3101C90.98 75.8601 90.27 75.6001 89.2 75.0601V75.0701Z" fill="white"/>
</g>
<defs>
<clipPath id="clip0_319_116">
<rect width="135" height="135" fill="white"/>
</clipPath>
</defs>
</svg>
