<svg width="671" height="283" viewBox="0 0 671 283" fill="none" xmlns="http://www.w3.org/2000/svg">
<path d="M3.62196 34.8654C3.62196 29.9762 3.52445 25.9784 3.23193 22.0782H10.7399L11.13 29.6976H11.4225C14.0552 25.1984 18.4569 21.0056 26.2713 21.0056C32.7207 21.0056 37.596 24.9058 39.6576 30.4776H39.8526C41.3152 27.845 43.1678 25.7834 45.1319 24.3208C47.9596 22.1757 51.0937 21.0056 55.579 21.0056C61.8333 21.0056 71.1104 25.1009 71.1104 41.5098V69.3409H62.7109V42.5824C62.7109 33.5003 59.3957 28.0261 52.4588 28.0261C47.5695 28.0261 43.7668 31.6338 42.3042 35.8405C41.9142 37.0106 41.6216 38.5707 41.6216 40.1308V69.327H33.2221V41.0223C33.2221 33.5003 29.9069 28.0261 23.3601 28.0261C17.9833 28.0261 14.083 32.3163 12.7179 36.6206C12.2304 37.8881 12.0354 39.3507 12.0354 40.8273V69.3409H3.62196V34.8654Z" fill="#E8793E"/>
<path d="M89.0653 47.2766C89.2603 58.8938 96.6848 63.6856 105.279 63.6856C111.436 63.6856 115.141 62.613 118.373 61.2479L119.836 67.4047C116.813 68.7698 111.631 70.3299 104.109 70.3299C89.5528 70.3299 80.8608 60.7604 80.8608 46.4966C80.8608 32.2328 89.2603 21.0056 103.037 21.0056C118.47 21.0056 122.566 34.5868 122.566 43.2789C122.566 45.034 122.371 46.3991 122.273 47.2905H89.0653V47.2766ZM114.264 41.1198C114.361 35.6455 112.021 27.1485 102.354 27.1485C93.6621 27.1485 89.8593 35.158 89.1628 41.1198H114.264Z" fill="#E8793E"/>
<path d="M173.254 0V57.1388C173.254 61.3316 173.352 66.1233 173.645 69.341H165.928L165.538 61.1366H165.343C162.71 66.4159 156.943 70.4136 149.226 70.4136C137.804 70.4136 129.014 60.7465 129.014 46.3852C128.917 30.6588 138.681 20.9918 150.201 20.9918C157.431 20.9918 162.306 24.4045 164.465 28.2212H164.66V0H173.254ZM164.66 41.3149C164.66 40.2423 164.562 38.7797 164.27 37.7072C163.002 32.2329 158.308 27.7476 151.873 27.7476C142.986 27.7476 137.706 35.562 137.706 46.0091C137.706 55.5787 142.401 63.4907 151.678 63.4907C157.444 63.4907 162.71 59.6879 164.27 53.2385C164.562 52.0685 164.66 50.8984 164.66 49.5194V41.3149Z" fill="#E8793E"/>
<path d="M196.295 8.78953C196.392 11.7147 194.247 14.0688 190.82 14.0688C187.798 14.0688 185.639 11.7287 185.639 8.78953C185.639 5.85041 187.881 3.41275 191.015 3.41275C194.15 3.41275 196.295 5.7529 196.295 8.78953ZM186.725 69.3411V22.0783H195.32V69.3411H186.725Z" fill="#E8793E"/>
<path d="M234.977 69.3411L234.294 63.3793H234.002C231.369 67.0845 226.285 70.4137 219.543 70.4137C209.973 70.4137 205.084 63.6718 205.084 56.8324C205.084 45.4102 215.239 39.1559 233.5 39.2534V38.2783C233.5 34.3781 232.428 27.3437 222.761 27.3437C218.359 27.3437 213.776 28.7088 210.461 30.8539L208.511 25.1846C212.411 22.6494 218.08 20.9918 224.042 20.9918C238.501 20.9918 242.011 30.8539 242.011 40.326V58.0025C242.011 62.0978 242.206 66.1095 242.791 69.3272H234.977V69.3411ZM233.709 45.2152C224.335 45.0202 213.692 46.6778 213.692 55.8574C213.692 61.4292 217.398 64.0618 221.799 64.0618C227.956 64.0618 231.856 60.1616 233.222 56.1499C233.514 55.2723 233.709 54.2973 233.709 53.4197V45.2152Z" fill="#E8793E"/>
<path d="M156.72 252.222C156.72 255.495 155.438 258.448 152.861 261.095C135.505 274.954 115.92 281.877 94.1205 281.877C68.2673 281.877 46.2448 272.768 28.025 254.548C9.80521 236.328 0.695312 214.305 0.695312 188.452C0.695312 162.599 9.80521 140.688 28.025 122.468C46.3144 104.179 68.3509 95.0271 94.1205 95.0271C116.227 95.0271 136.201 102.312 154.031 116.869C156.204 118.888 157.305 121.73 157.305 125.393C157.305 127.19 156.998 128.82 156.371 130.297C155.745 131.773 154.867 133.083 153.739 134.211C152.61 135.339 151.287 136.217 149.769 136.843C148.251 137.47 146.635 137.777 144.921 137.777C141.732 137.777 138.89 136.607 136.396 134.267C130.476 129.6 123.957 126.02 116.839 123.527C109.722 121.033 102.144 119.794 94.1205 119.794C75.1206 119.794 58.8928 126.522 45.4229 139.992C32.1063 153.308 25.448 169.466 25.448 188.452C25.448 207.438 32.1063 223.722 45.4229 237.038C58.8092 250.425 75.051 257.125 94.1205 257.125C108.217 257.125 120.823 253.433 131.953 246.037V209.834H99.7201C96.2238 209.834 93.2847 208.65 90.9028 206.268C88.5208 203.9 87.3368 200.961 87.3368 197.451C87.3368 195.737 87.6433 194.122 88.2701 192.603C88.8969 191.085 89.7745 189.762 90.9028 188.633C92.0311 187.505 93.3404 186.628 94.8169 186.001C96.2935 185.374 97.9371 185.067 99.7201 185.067H144.448C146.077 185.067 147.638 185.402 149.114 186.056C150.591 186.725 151.9 187.617 153.028 188.745C154.157 189.873 155.048 191.196 155.717 192.715C156.371 194.233 156.706 195.807 156.706 197.451V252.222H156.72Z" fill="#D7D7D7"/>
<path d="M94.1216 282.574C68.1988 282.574 45.8002 273.311 27.5247 255.049C9.26312 236.774 0 214.375 0 188.452C0 162.529 9.26312 140.242 27.5247 121.981C45.8698 103.636 68.2685 94.3306 94.1216 94.3306C116.297 94.3306 136.593 101.727 154.478 116.325C156.832 118.512 158.002 121.549 158.002 125.393C158.002 127.274 157.668 129.015 157.013 130.575C156.359 132.135 155.425 133.528 154.241 134.712C153.043 135.896 151.637 136.843 150.049 137.498C148.461 138.153 146.733 138.487 144.936 138.487C141.579 138.487 138.543 137.247 135.938 134.796C130.157 130.241 123.638 126.661 116.618 124.195C109.597 121.744 102.034 120.504 94.1356 120.504C75.4143 120.504 59.2004 127.232 45.9256 140.507C32.804 153.629 26.1596 169.759 26.1596 188.48C26.1596 207.201 32.804 223.457 45.9256 236.565C59.1168 249.756 75.3307 256.442 94.1356 256.442C107.884 256.442 120.379 252.82 131.272 245.675V210.544H99.7352C96.0578 210.544 92.9237 209.277 90.4303 206.783C87.9369 204.29 86.6693 201.156 86.6693 197.479C86.6693 195.682 87.0036 193.954 87.6583 192.366C88.313 190.765 89.2463 189.358 90.4303 188.174C91.6143 186.99 93.0073 186.056 94.5674 185.402C96.1275 184.747 97.8687 184.413 99.7491 184.413H144.477C146.204 184.413 147.862 184.761 149.436 185.471C150.982 186.168 152.375 187.115 153.559 188.299C154.743 189.483 155.704 190.904 156.386 192.478C157.083 194.08 157.431 195.765 157.431 197.493V252.263C157.431 255.704 156.066 258.852 153.378 261.624C135.91 275.581 115.991 282.63 94.1356 282.63L94.1216 282.574ZM94.1216 95.7236C68.6585 95.7236 46.5942 104.889 28.5137 122.97C10.5168 140.967 1.39295 162.989 1.39295 188.452C1.39295 213.915 10.5168 236.063 28.5137 254.06C46.5106 272.057 68.5889 281.181 94.1216 281.181C115.657 281.181 135.269 274.244 152.43 260.551C154.799 258.114 156.024 255.286 156.024 252.222V197.451C156.024 195.918 155.704 194.428 155.091 192.993C154.464 191.572 153.615 190.305 152.556 189.232C151.497 188.174 150.244 187.31 148.851 186.683C147.472 186.07 145.995 185.75 144.463 185.75H99.7352C98.0497 185.75 96.4896 186.042 95.0967 186.627C93.7037 187.213 92.464 188.048 91.4054 189.107C90.3467 190.166 89.511 191.419 88.9259 192.854C88.3409 194.275 88.0484 195.821 88.0484 197.437C88.0484 200.738 89.1767 203.538 91.4054 205.767C93.6341 207.995 96.4339 209.124 99.7352 209.124H132.665V246.399L132.358 246.608C121.159 254.046 108.302 257.821 94.1356 257.821C74.9546 257.821 58.4064 250.996 44.9505 237.526C31.5642 224.14 24.7806 207.633 24.7806 188.452C24.7806 169.271 31.5642 152.876 44.9505 139.49C58.49 125.951 75.0382 119.083 94.1356 119.083C102.201 119.083 109.918 120.351 117.077 122.858C124.251 125.366 130.895 129.015 136.843 133.709C139.239 135.952 141.942 137.066 144.936 137.066C146.552 137.066 148.098 136.774 149.519 136.189C150.94 135.604 152.208 134.768 153.266 133.709C154.325 132.651 155.161 131.411 155.746 130.018C156.331 128.639 156.623 127.079 156.623 125.379C156.623 121.939 155.592 119.251 153.573 117.37C135.98 103.009 115.977 95.7236 94.1356 95.7236H94.1216Z" fill="#D7D7D7"/>
<path d="M183.898 269.494V107.41C183.898 105.697 184.204 104.081 184.831 102.563C185.458 101.045 186.336 99.7212 187.464 98.5929C188.592 97.4647 189.902 96.5871 191.378 95.9603C192.855 95.3334 194.498 95.027 196.281 95.027H241.357C249.213 95.027 256.638 96.5453 263.603 99.5819C270.567 102.619 276.641 106.742 281.822 111.965C287.004 117.189 291.113 123.276 294.136 130.241C297.173 137.206 298.691 144.63 298.691 152.486C298.691 157.626 298.05 162.627 296.769 167.488C295.487 172.35 293.579 176.946 291.044 181.265C288.508 185.583 285.36 189.594 281.586 193.3C277.811 197.005 273.423 200.25 268.45 203.05L305.697 262.724C307.021 264.911 307.689 267.168 307.689 269.494C307.689 271.291 307.383 272.921 306.756 274.397C306.129 275.874 305.252 277.183 304.123 278.311C302.995 279.44 301.672 280.317 300.154 280.944C298.635 281.571 297.019 281.877 295.306 281.877C290.946 281.877 287.408 279.858 284.678 275.804L243.46 209.82H208.665V269.494C208.665 272.921 207.453 275.846 205.043 278.256C202.633 280.665 199.708 281.877 196.281 281.877C192.855 281.877 189.929 280.665 187.52 278.256C185.11 275.846 183.898 272.921 183.898 269.494ZM208.651 119.78V185.067H241.343C245.856 185.067 250.105 184.218 254.075 182.504C258.045 180.791 261.485 178.437 264.41 175.442C267.336 172.447 269.648 168.979 271.361 165.051C273.075 161.122 273.924 156.93 273.924 152.5C273.924 148.071 273.061 143.738 271.361 139.769C269.648 135.799 267.308 132.33 264.355 129.377C261.402 126.424 257.933 124.084 253.963 122.371C249.993 120.657 245.787 119.808 241.357 119.808H208.665L208.651 119.78Z" fill="#D7D7D7"/>
<path d="M295.306 282.574C290.723 282.574 286.948 280.429 284.106 276.194L243.07 210.517H209.347V269.494C209.347 273.102 208.065 276.208 205.516 278.743C202.981 281.278 199.861 282.574 196.267 282.574C192.673 282.574 189.553 281.292 187.018 278.743C184.482 276.208 183.187 273.102 183.187 269.494V107.41C183.187 105.613 183.521 103.886 184.176 102.298C184.831 100.71 185.764 99.2895 186.948 98.1055C188.132 96.9215 189.525 95.9882 191.085 95.3335C192.645 94.6788 194.386 94.3445 196.267 94.3445H241.343C249.269 94.3445 256.846 95.8907 263.867 98.9552C270.887 102.006 277.086 106.226 282.295 111.478C287.505 116.729 291.698 122.956 294.762 129.962C297.827 136.983 299.373 144.56 299.373 152.486C299.373 157.668 298.718 162.766 297.423 167.669C296.127 172.573 294.177 177.267 291.628 181.627C289.079 185.987 285.861 190.082 282.059 193.801C278.423 197.367 274.161 200.557 269.411 203.301L306.282 262.362C307.675 264.647 308.371 267.056 308.371 269.508C308.371 271.375 308.037 273.116 307.382 274.676C306.728 276.236 305.794 277.629 304.61 278.813C303.426 279.997 302.006 280.944 300.418 281.599C298.83 282.253 297.102 282.588 295.306 282.588V282.574ZM207.954 209.124H243.836L285.262 275.428C287.853 279.286 291.155 281.167 295.306 281.167C296.921 281.167 298.468 280.874 299.888 280.289C301.309 279.704 302.577 278.869 303.635 277.81C304.694 276.751 305.53 275.512 306.115 274.119C306.7 272.726 306.992 271.166 306.992 269.48C306.992 267.279 306.352 265.134 305.112 263.073L267.474 202.786L268.115 202.424C273.018 199.665 277.392 196.42 281.111 192.784C284.831 189.149 287.965 185.151 290.458 180.902C292.951 176.654 294.846 172.071 296.113 167.293C297.381 162.515 298.022 157.515 298.022 152.458C298.022 144.728 296.504 137.331 293.523 130.492C290.542 123.638 286.446 117.565 281.348 112.425C276.25 107.299 270.191 103.176 263.351 100.195C256.498 97.214 249.115 95.6957 241.384 95.6957H196.309C194.623 95.6957 193.063 95.9882 191.67 96.5732C190.277 97.1583 189.037 97.9941 187.979 99.0527C186.92 100.111 186.084 101.379 185.499 102.8C184.914 104.221 184.622 105.767 184.622 107.383V269.48C184.622 272.74 185.736 275.456 188.034 277.74C190.305 280.011 193.077 281.153 196.295 281.153C199.512 281.153 202.257 280.039 204.555 277.74C206.853 275.442 207.968 272.698 207.968 269.48V209.11L207.954 209.124ZM241.343 185.764H207.954V119.083H241.343C245.856 119.083 250.188 119.961 254.227 121.716C258.253 123.457 261.833 125.867 264.842 128.876C267.851 131.885 270.26 135.45 272.002 139.49C273.743 143.53 274.634 147.903 274.634 152.5C274.634 157.097 273.757 161.331 272.002 165.329C270.26 169.327 267.878 172.893 264.911 175.93C261.944 178.98 258.392 181.404 254.353 183.145C250.313 184.886 245.939 185.778 241.343 185.778V185.764ZM209.347 184.371H241.343C245.744 184.371 249.937 183.521 253.796 181.864C257.668 180.192 261.067 177.866 263.908 174.955C266.75 172.029 269.048 168.603 270.72 164.772C272.392 160.941 273.227 156.818 273.227 152.5C273.227 148.182 272.378 143.906 270.72 140.047C269.048 136.175 266.75 132.748 263.867 129.865C260.983 126.981 257.557 124.669 253.684 123.011C249.812 121.34 245.661 120.504 241.343 120.504H209.347V184.399V184.371Z" fill="#D7D7D7"/>
<path d="M546.302 107.41C546.302 103.984 547.514 101.073 549.924 98.6488C552.334 96.239 555.259 95.0272 558.686 95.0272C562.112 95.0272 565.023 96.239 567.447 98.6488C569.857 101.059 571.069 103.984 571.069 107.41V176.543L648.726 98.8856C651.289 96.3226 654.298 95.0272 657.724 95.0272C659.438 95.0272 661.053 95.3336 662.572 95.9604C664.09 96.5873 665.413 97.4648 666.542 98.5931C667.67 99.7214 668.548 101.045 669.174 102.563C669.801 104.081 670.108 105.697 670.108 107.41C670.108 110.837 668.896 113.762 666.486 116.172L605.294 177.476L667.767 262.139C669.328 264.326 670.108 266.653 670.108 269.146C670.108 270.776 669.801 272.378 669.174 273.938C668.548 275.498 667.698 276.863 666.611 278.019C665.525 279.189 664.229 280.122 662.753 280.819C661.276 281.515 659.674 281.864 657.961 281.864C653.364 281.864 649.91 280.108 647.57 276.612L587.547 195.208L571.083 211.673V269.48C571.083 272.907 569.871 275.832 567.461 278.242C565.051 280.652 562.126 281.864 558.699 281.864C555.273 281.864 552.348 280.652 549.938 278.242C547.528 275.832 546.316 272.907 546.316 269.48V107.41H546.302Z" fill="#D7D7D7"/>
<path d="M657.946 282.574C653.126 282.574 649.435 280.707 646.969 277.002L587.449 196.281L571.764 211.965V269.48C571.764 273.088 570.483 276.194 567.933 278.729C565.398 281.265 562.278 282.56 558.684 282.56C555.09 282.56 551.97 281.278 549.435 278.729C546.9 276.194 545.604 273.088 545.604 269.48V107.41C545.604 103.803 546.886 100.696 549.435 98.1613C551.97 95.6261 555.09 94.3307 558.684 94.3307C562.278 94.3307 565.398 95.6122 567.933 98.1613C570.469 100.696 571.764 103.817 571.764 107.41V174.871L648.237 98.3981C650.925 95.7097 654.115 94.3446 657.723 94.3446C659.52 94.3446 661.233 94.6789 662.835 95.3336C664.437 95.9883 665.844 96.9216 667.028 98.1056C668.212 99.3035 669.145 100.71 669.814 102.298C670.468 103.9 670.803 105.614 670.803 107.41C670.803 111.018 669.521 114.125 666.972 116.66L606.198 177.546L668.323 261.735C669.967 264.034 670.789 266.527 670.789 269.16C670.789 270.873 670.455 272.573 669.8 274.202C669.145 275.832 668.24 277.281 667.098 278.507C665.955 279.732 664.576 280.735 663.03 281.46C661.47 282.198 659.757 282.574 657.946 282.574ZM587.602 194.163L648.112 276.208C650.354 279.565 653.558 281.181 657.946 281.181C659.548 281.181 661.052 280.847 662.431 280.192C663.824 279.537 665.05 278.646 666.081 277.545C667.112 276.445 667.919 275.15 668.518 273.673C669.103 272.21 669.41 270.678 669.41 269.146C669.41 266.82 668.672 264.591 667.209 262.543L604.387 177.406L665.997 115.671C668.296 113.372 669.41 110.67 669.41 107.397C669.41 105.781 669.117 104.248 668.532 102.814C667.947 101.393 667.112 100.125 666.053 99.0667C664.994 98.0081 663.741 97.1723 662.306 96.5873C660.871 96.0022 659.339 95.7097 657.723 95.7097C654.464 95.7097 651.678 96.9076 649.226 99.3592L570.371 178.214V107.397C570.371 104.179 569.215 101.393 566.958 99.1364C564.66 96.838 561.958 95.7236 558.698 95.7236C555.439 95.7236 552.695 96.8798 550.438 99.1364C548.14 101.435 547.025 104.137 547.025 107.397V269.494C547.025 272.754 548.14 275.47 550.438 277.754C552.709 280.025 555.48 281.167 558.698 281.167C561.916 281.167 564.66 280.053 566.958 277.754C569.257 275.456 570.371 272.712 570.371 269.494V211.394L587.616 194.149L587.602 194.163Z" fill="#D7D7D7"/>
<path d="M513.011 152.598C508.456 141.705 501.589 131.662 492.395 122.468C476.07 106.143 456.792 97.1167 434.56 95.3615V120.24C450.022 121.925 463.492 128.5 474.983 139.992C488.37 153.378 495.07 169.536 495.07 188.452C495.07 207.369 488.37 223.638 474.983 237.038C463.547 248.475 450.078 255.008 434.56 256.679V281.543C456.847 279.802 476.126 270.818 492.395 254.548C510.685 236.258 519.836 214.222 519.836 188.452C519.836 175.456 517.566 163.505 513.011 152.598Z" fill="#D7D7D7"/>
<path d="M433.862 282.295V256.052L434.489 255.983C449.784 254.339 463.254 247.792 474.495 236.537C487.686 223.346 494.372 207.16 494.372 188.452C494.372 169.745 487.686 153.67 474.495 140.479C463.184 129.168 449.728 122.594 434.489 120.936L433.862 120.866V94.6093L434.615 94.665C456.916 96.4341 476.528 105.614 492.882 121.967C502.089 131.174 509.068 141.385 513.65 152.319C518.219 163.254 520.532 175.414 520.532 188.438C520.532 214.278 511.227 236.69 492.882 255.035C476.584 271.333 456.985 280.471 434.615 282.226L433.862 282.281V282.295ZM435.255 257.292V280.777C456.971 278.911 476.027 269.912 491.893 254.046C509.973 235.966 519.139 213.902 519.139 188.438C519.139 175.595 516.854 163.616 512.355 152.849C507.856 142.081 500.975 132.024 491.893 122.942C475.957 107.007 456.902 97.9803 435.255 96.0998V119.599C450.564 121.41 464.089 128.096 475.484 139.476C488.953 152.946 495.779 169.411 495.779 188.438C495.779 207.466 488.953 224.042 475.484 237.512C464.159 248.837 450.619 255.495 435.255 257.278V257.292Z" fill="#D7D7D7"/>
<path d="M419.348 256.804C403.37 255.328 389.524 248.739 377.824 237.038C364.437 223.652 357.737 207.452 357.737 188.452C357.737 178.799 359.395 169.996 362.696 162.056C366.011 154.116 371.04 146.761 377.824 139.978C384.593 133.208 391.976 128.138 399.958 124.795C405.947 122.287 412.411 120.713 419.348 120.086V95.2779C396.587 96.8101 376.904 105.864 360.3 122.454C342.081 140.674 332.971 162.669 332.971 188.438C332.971 214.208 342.081 236.314 360.3 254.534C376.835 271.068 396.517 280.067 419.348 281.599V256.777V256.804Z" fill="#D7D7D7"/>
<path d="M420.043 282.365L419.305 282.309C396.391 280.777 376.374 271.597 359.812 255.035C341.551 236.774 332.288 214.361 332.288 188.438C332.288 162.516 341.551 140.228 359.812 121.967C376.444 105.335 396.447 96.1275 419.305 94.5813L420.043 94.5256V120.713L419.403 120.769C412.563 121.382 406.114 122.956 400.208 125.421C392.352 128.723 384.983 133.779 378.297 140.451C371.624 147.123 366.582 154.478 363.323 162.293C360.063 170.107 358.419 178.897 358.419 188.41C358.419 207.132 365.105 223.304 378.297 236.495C389.83 248.029 403.648 254.603 419.389 256.066L420.016 256.122V282.323L420.043 282.365ZM418.65 96.0439C396.461 97.7155 377.001 106.77 360.801 122.97C342.804 140.967 333.681 163.003 333.681 188.452C333.681 213.901 342.804 236.063 360.801 254.06C376.932 270.191 396.391 279.217 418.65 280.874V257.431C402.84 255.829 388.939 249.129 377.322 237.526C363.852 224.07 357.026 207.55 357.026 188.452C357.026 178.743 358.712 169.773 362.041 161.791C365.37 153.81 370.51 146.302 377.308 139.49C384.119 132.679 391.641 127.525 399.665 124.154C405.515 121.702 411.895 120.114 418.637 119.446V96.0161L418.65 96.0439Z" fill="#D7D7D7"/>
<path d="M426.41 241.705C455.79 241.705 479.607 217.875 479.607 188.48C479.607 159.085 455.79 135.256 426.41 135.256C397.03 135.256 373.213 159.085 373.213 188.48C373.213 217.875 397.03 241.705 426.41 241.705Z" fill="#E8793E"/>
</svg>
