<svg width="671" height="189" viewBox="0 0 671 189" fill="none" xmlns="http://www.w3.org/2000/svg">
<path d="M156.72 158.222C156.72 161.495 155.438 164.448 152.861 167.095C135.505 180.954 115.92 187.877 94.1205 187.877C68.2673 187.877 46.2448 178.768 28.025 160.548C9.80521 142.328 0.695312 120.305 0.695312 94.4523C0.695312 68.5991 9.80521 46.688 28.025 28.4682C46.3144 10.1788 68.3509 1.02712 94.1205 1.02712C116.227 1.02712 136.201 8.31225 154.031 22.8686C156.204 24.8884 157.305 27.73 157.305 31.3934C157.305 33.1903 156.998 34.8201 156.371 36.2966C155.745 37.7731 154.867 39.0825 153.739 40.2108C152.61 41.3391 151.287 42.2166 149.769 42.8435C148.251 43.4703 146.635 43.7768 144.921 43.7768C141.732 43.7768 138.89 42.6067 136.396 40.2665C130.476 35.6001 123.957 32.0203 116.839 29.5269C109.722 27.0335 102.144 25.7938 94.1205 25.7938C75.1206 25.7938 58.8928 32.5217 45.4229 45.9915C32.1063 59.3081 25.448 75.4664 25.448 94.4523C25.448 113.438 32.1063 129.722 45.4229 143.038C58.8092 156.425 75.051 163.125 94.1205 163.125C108.217 163.125 120.823 159.433 131.953 152.037V115.834H99.7201C96.2238 115.834 93.2847 114.65 90.9028 112.268C88.5208 109.9 87.3368 106.961 87.3368 103.451C87.3368 101.737 87.6433 100.122 88.2701 98.6033C88.8969 97.085 89.7745 95.7616 90.9028 94.6334C92.0311 93.5051 93.3404 92.6275 94.8169 92.0007C96.2935 91.3739 97.9371 91.0674 99.7201 91.0674H144.448C146.077 91.0674 147.638 91.4017 149.114 92.0564C150.591 92.725 151.9 93.6165 153.028 94.7448C154.157 95.8731 155.048 97.1964 155.717 98.7147C156.371 100.233 156.706 101.807 156.706 103.451V158.222H156.72Z" fill="#D7D7D7"/>
<path d="M94.1216 188.574C68.1988 188.574 45.8002 179.311 27.5247 161.049C9.26312 142.774 0 120.375 0 94.4523C0 68.5295 9.26312 46.2423 27.5247 27.9807C45.8698 9.63554 68.2685 0.330635 94.1216 0.330635C116.297 0.330635 136.593 7.7272 154.478 22.3253C156.832 24.5122 158.002 27.5489 158.002 31.3934C158.002 33.2739 157.668 35.0151 157.013 36.5752C156.359 38.1353 155.425 39.5282 154.241 40.7123C153.043 41.8963 151.637 42.8435 150.049 43.4982C148.461 44.1528 146.733 44.4871 144.936 44.4871C141.579 44.4871 138.543 43.2474 135.938 40.7958C130.157 36.2409 123.638 32.661 116.618 30.1955C109.597 27.7439 102.034 26.5042 94.1356 26.5042C75.4143 26.5042 59.2004 33.2321 45.9256 46.5069C32.804 59.6285 26.1596 75.7589 26.1596 94.4801C26.1596 113.201 32.804 129.457 45.9256 142.565C59.1168 155.756 75.3307 162.442 94.1356 162.442C107.884 162.442 120.379 158.82 131.272 151.675V116.544H99.7352C96.0578 116.544 92.9237 115.277 90.4303 112.783C87.9369 110.29 86.6693 107.156 86.6693 103.479C86.6693 101.682 87.0036 99.9544 87.6583 98.3665C88.313 96.7646 89.2463 95.3577 90.4303 94.1737C91.6143 92.9897 93.0073 92.0564 94.5674 91.4017C96.1275 90.747 97.8687 90.4127 99.7491 90.4127H144.477C146.204 90.4127 147.862 90.7609 149.436 91.4713C150.982 92.1678 152.375 93.115 153.559 94.299C154.743 95.483 155.704 96.9039 156.386 98.4779C157.083 100.08 157.431 101.765 157.431 103.493V158.263C157.431 161.704 156.066 164.852 153.378 167.624C135.91 181.581 115.991 188.63 94.1356 188.63L94.1216 188.574ZM94.1216 1.72359C68.6585 1.72359 46.5942 10.8892 28.5137 28.9697C10.5168 46.9666 1.39295 68.9891 1.39295 94.4523C1.39295 119.915 10.5168 142.063 28.5137 160.06C46.5106 178.057 68.5889 187.181 94.1216 187.181C115.657 187.181 135.269 180.244 152.43 166.551C154.799 164.114 156.024 161.286 156.024 158.222V103.451C156.024 101.918 155.704 100.428 155.091 98.9933C154.464 97.5725 153.615 96.3049 152.556 95.2323C151.497 94.1737 150.244 93.3101 148.851 92.6832C147.472 92.0703 145.995 91.75 144.463 91.75H99.7352C98.0497 91.75 96.4896 92.0425 95.0967 92.6275C93.7037 93.2125 92.464 94.0483 91.4054 95.1069C90.3467 96.1656 89.511 97.4193 88.9259 98.854C88.3409 100.275 88.0484 101.821 88.0484 103.437C88.0484 106.738 89.1767 109.538 91.4054 111.767C93.6341 113.995 96.4339 115.124 99.7352 115.124H132.665V152.399L132.358 152.608C121.159 160.046 108.302 163.821 94.1356 163.821C74.9546 163.821 58.4064 156.996 44.9505 143.526C31.5642 130.14 24.7806 113.633 24.7806 94.4523C24.7806 75.2713 31.5642 58.8763 44.9505 45.4901C58.49 31.9506 75.0382 25.0834 94.1356 25.0834C102.201 25.0834 109.918 26.3509 117.077 28.8582C124.251 31.3656 130.895 35.0151 136.843 39.7093C139.239 41.952 141.942 43.0663 144.936 43.0663C146.552 43.0663 148.098 42.7738 149.519 42.1888C150.94 41.6037 152.208 40.768 153.266 39.7093C154.325 38.6507 155.161 37.411 155.746 36.018C156.331 34.639 156.623 33.0789 156.623 31.3795C156.623 27.9389 155.592 25.2505 153.573 23.37C135.98 9.00871 115.977 1.72359 94.1356 1.72359H94.1216Z" fill="#D7D7D7"/>
<path d="M183.898 175.494V13.4103C183.898 11.697 184.204 10.0812 184.831 8.56285C185.458 7.04454 186.336 5.72124 187.464 4.59295C188.592 3.46466 189.902 2.5871 191.378 1.96027C192.855 1.33345 194.498 1.027 196.281 1.027H241.357C249.213 1.027 256.638 2.54531 263.603 5.58194C270.567 8.61857 276.641 12.7417 281.822 17.9653C287.004 23.1888 291.113 29.276 294.136 36.2408C297.173 43.2055 298.691 50.6299 298.691 58.4862C298.691 63.6262 298.05 68.6269 296.769 73.4883C295.487 78.3496 293.579 82.9464 291.044 87.2645C288.508 91.5827 285.36 95.5944 281.586 99.2996C277.811 103.005 273.423 106.25 268.45 109.05L305.697 168.724C307.021 170.911 307.689 173.168 307.689 175.494C307.689 177.291 307.383 178.921 306.756 180.397C306.129 181.874 305.252 183.183 304.123 184.311C302.995 185.44 301.672 186.317 300.154 186.944C298.635 187.571 297.019 187.877 295.306 187.877C290.946 187.877 287.408 185.858 284.678 181.804L243.46 115.82H208.665V175.494C208.665 178.921 207.453 181.846 205.043 184.256C202.633 186.665 199.708 187.877 196.281 187.877C192.855 187.877 189.929 186.665 187.52 184.256C185.11 181.846 183.898 178.921 183.898 175.494ZM208.651 25.7797V91.0673H241.343C245.856 91.0673 250.105 90.2176 254.075 88.5043C258.045 86.7909 261.485 84.4368 264.41 81.442C267.336 78.4472 269.648 74.9787 271.361 71.0506C273.075 67.1225 273.924 62.9297 273.924 58.5001C273.924 54.0705 273.061 49.7385 271.361 45.7685C269.648 41.7986 267.308 38.3302 264.355 35.3771C261.402 32.4241 257.933 30.0839 253.963 28.3706C249.993 26.6573 245.787 25.8076 241.357 25.8076H208.665L208.651 25.7797Z" fill="#D7D7D7"/>
<path d="M295.306 188.574C290.723 188.574 286.948 186.429 284.106 182.194L243.07 116.517H209.347V175.494C209.347 179.102 208.065 182.208 205.516 184.743C202.981 187.278 199.861 188.574 196.267 188.574C192.673 188.574 189.553 187.292 187.018 184.743C184.482 182.208 183.187 179.102 183.187 175.494V13.4104C183.187 11.6135 183.521 9.88623 184.176 8.29827C184.831 6.71031 185.764 5.2895 186.948 4.10549C188.132 2.92148 189.525 1.98821 191.085 1.33352C192.645 0.678835 194.386 0.344528 196.267 0.344528H241.343C249.269 0.344528 256.846 1.8907 263.867 4.95519C270.887 8.00575 277.086 12.2264 282.295 17.4778C287.505 22.7292 291.698 28.9557 294.762 35.9623C297.827 42.9827 299.373 50.5604 299.373 58.4863C299.373 63.668 298.718 68.7662 297.423 73.6694C296.127 78.5726 294.177 83.2668 291.628 87.6268C289.079 91.9867 285.861 96.082 282.059 99.8012C278.423 103.367 274.161 106.557 269.411 109.301L306.282 168.362C307.675 170.647 308.371 173.056 308.371 175.508C308.371 177.375 308.037 179.116 307.382 180.676C306.728 182.236 305.794 183.629 304.61 184.813C303.426 185.997 302.006 186.944 300.418 187.599C298.83 188.253 297.102 188.588 295.306 188.588V188.574ZM207.954 115.124H243.836L285.262 181.428C287.853 185.286 291.155 187.167 295.306 187.167C296.921 187.167 298.468 186.874 299.888 186.289C301.309 185.704 302.577 184.869 303.635 183.81C304.694 182.751 305.53 181.512 306.115 180.119C306.7 178.726 306.992 177.166 306.992 175.48C306.992 173.279 306.352 171.134 305.112 169.073L267.474 108.786L268.115 108.424C273.018 105.665 277.392 102.42 281.111 98.7843C284.831 95.1487 287.965 91.1509 290.458 86.9024C292.951 82.6539 294.846 78.0711 296.113 73.2933C297.381 68.5155 298.022 63.5148 298.022 58.4584C298.022 50.7275 296.504 43.331 293.523 36.4916C290.542 29.6383 286.446 23.565 281.348 18.425C276.25 13.299 270.191 9.17583 263.351 6.19491C256.498 3.214 249.115 1.69568 241.384 1.69568H196.309C194.623 1.69568 193.063 1.98821 191.67 2.57325C190.277 3.15828 189.037 3.99405 187.979 5.0527C186.92 6.11134 186.084 7.37892 185.499 8.79973C184.914 10.2205 184.622 11.7667 184.622 13.3825V175.48C184.622 178.74 185.736 181.456 188.034 183.74C190.305 186.011 193.077 187.153 196.295 187.153C199.512 187.153 202.257 186.039 204.555 183.74C206.853 181.442 207.968 178.698 207.968 175.48V115.11L207.954 115.124ZM241.343 91.7638H207.954V25.0833H241.343C245.856 25.0833 250.188 25.9609 254.227 27.716C258.253 29.4572 261.833 31.867 264.842 34.8757C267.851 37.8845 270.26 41.4505 272.002 45.49C273.743 49.5296 274.634 53.9035 274.634 58.5002C274.634 63.0969 273.757 67.3315 272.002 71.3293C270.26 75.327 267.878 78.893 264.911 81.9296C261.944 84.9802 258.392 87.4039 254.353 89.1451C250.313 90.8863 245.939 91.7777 241.343 91.7777V91.7638ZM209.347 90.3709H241.343C245.744 90.3709 249.937 89.5212 253.796 87.8636C257.668 86.192 261.067 83.8658 263.908 80.9545C266.75 78.0293 269.048 74.6027 270.72 70.7721C272.392 66.9415 273.227 62.8183 273.227 58.5002C273.227 54.182 272.378 49.9057 270.72 46.0472C269.048 42.1748 266.75 38.7482 263.867 35.8647C260.983 32.9813 257.557 30.669 253.684 29.0114C249.812 27.3399 245.661 26.5041 241.343 26.5041H209.347V90.3987V90.3709Z" fill="#D7D7D7"/>
<path d="M546.302 13.4105C546.302 9.98384 547.514 7.07257 549.924 4.64884C552.334 2.23903 555.259 1.02717 558.686 1.02717C562.112 1.02717 565.023 2.23903 567.447 4.64884C569.857 7.05864 571.069 9.98384 571.069 13.4105V82.5426L648.726 4.88564C651.289 2.32261 654.298 1.02717 657.724 1.02717C659.438 1.02717 661.053 1.33361 662.572 1.96044C664.09 2.58727 665.413 3.46483 666.542 4.59312C667.67 5.72141 668.548 7.04471 669.174 8.56302C669.801 10.0813 670.108 11.6972 670.108 13.4105C670.108 16.8372 668.896 19.7623 666.486 22.1721L605.294 83.4759L667.767 168.139C669.328 170.326 670.108 172.653 670.108 175.146C670.108 176.776 669.801 178.378 669.174 179.938C668.548 181.498 667.698 182.863 666.611 184.019C665.525 185.189 664.229 186.122 662.753 186.819C661.276 187.515 659.674 187.864 657.961 187.864C653.364 187.864 649.91 186.108 647.57 182.612L587.547 101.208L571.083 117.673V175.48C571.083 178.907 569.871 181.832 567.461 184.242C565.051 186.652 562.126 187.864 558.699 187.864C555.273 187.864 552.348 186.652 549.938 184.242C547.528 181.832 546.316 178.907 546.316 175.48V13.4105H546.302Z" fill="#D7D7D7"/>
<path d="M657.946 188.574C653.126 188.574 649.435 186.707 646.969 183.002L587.449 102.281L571.764 117.965V175.48C571.764 179.088 570.483 182.194 567.933 184.729C565.398 187.265 562.278 188.56 558.684 188.56C555.09 188.56 551.97 187.278 549.435 184.729C546.9 182.194 545.604 179.088 545.604 175.48V13.4105C545.604 9.80275 546.886 6.69647 549.435 4.1613C551.97 1.62613 555.09 0.330688 558.684 0.330688C562.278 0.330688 565.398 1.6122 567.933 4.1613C570.469 6.69647 571.764 9.81668 571.764 13.4105V80.871L648.237 4.3981C650.925 1.70971 654.115 0.344621 657.723 0.344621C659.52 0.344621 661.233 0.678928 662.835 1.33361C664.437 1.9883 665.844 2.92157 667.028 4.10558C668.212 5.30352 669.145 6.7104 669.814 8.29836C670.468 9.90026 670.803 11.6136 670.803 13.4105C670.803 17.0182 669.521 20.1245 666.972 22.6597L606.198 83.5455L668.323 167.735C669.967 170.034 670.789 172.527 670.789 175.16C670.789 176.873 670.455 178.573 669.8 180.202C669.145 181.832 668.24 183.281 667.098 184.507C665.955 185.732 664.576 186.735 663.03 187.46C661.47 188.198 659.757 188.574 657.946 188.574ZM587.602 100.163L648.112 182.208C650.354 185.565 653.558 187.181 657.946 187.181C659.548 187.181 661.052 186.847 662.431 186.192C663.824 185.537 665.05 184.646 666.081 183.545C667.112 182.445 667.919 181.15 668.518 179.673C669.103 178.21 669.41 176.678 669.41 175.146C669.41 172.82 668.672 170.591 667.209 168.543L604.387 83.4062L665.997 21.6707C668.296 19.3723 669.41 16.67 669.41 13.3966C669.41 11.7807 669.117 10.2485 668.532 8.81375C667.947 7.39294 667.112 6.12536 666.053 5.06672C664.994 4.00808 663.741 3.1723 662.306 2.58726C660.871 2.00222 659.339 1.70971 657.723 1.70971C654.464 1.70971 651.678 2.90765 649.226 5.35924L570.371 84.2141V13.3966C570.371 10.1788 569.215 7.39294 566.958 5.13636C564.66 2.83799 561.958 1.72364 558.698 1.72364C555.439 1.72364 552.695 2.87978 550.438 5.13636C548.14 7.43473 547.025 10.1371 547.025 13.3966V175.494C547.025 178.754 548.14 181.47 550.438 183.754C552.709 186.025 555.48 187.167 558.698 187.167C561.916 187.167 564.66 186.053 566.958 183.754C569.257 181.456 570.371 178.712 570.371 175.494V117.394L587.616 100.149L587.602 100.163Z" fill="#D7D7D7"/>
<path d="M513.011 58.5979C508.456 47.705 501.589 37.6618 492.395 28.4684C476.07 12.143 456.792 3.11667 434.56 1.36155V26.2396C450.022 27.9251 463.492 34.4998 474.983 45.9917C488.37 59.3779 495.07 75.5361 495.07 94.4524C495.07 113.369 488.37 129.638 474.983 143.038C463.547 154.475 450.078 161.008 434.56 162.679V187.543C456.847 185.802 476.126 176.818 492.395 160.548C510.685 142.258 519.836 120.222 519.836 94.4524C519.836 81.4562 517.566 69.5047 513.011 58.5979Z" fill="#D7D7D7"/>
<path d="M433.862 188.295V162.052L434.489 161.983C449.784 160.339 463.254 153.792 474.495 142.537C487.686 129.346 494.372 113.16 494.372 94.4523C494.372 75.745 487.686 59.6704 474.495 46.4792C463.184 35.1684 449.728 28.5937 434.489 26.9361L433.862 26.8664V0.609314L434.615 0.665033C456.916 2.43408 476.528 11.6136 492.882 27.9669C502.089 37.1742 509.068 47.3846 513.65 58.3192C518.219 69.2539 520.532 81.4143 520.532 94.4384C520.532 120.278 511.227 142.69 492.882 161.035C476.584 177.333 456.985 186.471 434.615 188.226L433.862 188.281V188.295ZM435.255 163.292V186.777C456.971 184.911 476.027 175.912 491.893 160.046C509.973 141.966 519.139 119.902 519.139 94.4384C519.139 81.5954 516.854 69.6161 512.355 58.8486C507.856 48.0811 500.975 38.024 491.893 28.9419C475.957 13.0066 456.902 3.98025 435.255 2.09977V25.5988C450.564 27.4097 464.089 34.0958 475.484 45.4762C488.953 58.9461 495.779 75.4107 495.779 94.4384C495.779 113.466 488.953 130.042 475.484 143.512C464.159 154.837 450.619 161.495 435.255 163.278V163.292Z" fill="#D7D7D7"/>
<path d="M419.348 162.804C403.37 161.328 389.524 154.739 377.824 143.038C364.437 129.652 357.737 113.452 357.737 94.4523C357.737 84.7992 359.395 75.9957 362.696 68.0559C366.011 60.1161 371.04 52.7613 377.824 45.9777C384.593 39.2079 391.976 34.1376 399.958 30.7945C405.947 28.2872 412.411 26.7132 419.348 26.0863V1.2779C396.587 2.81015 376.904 11.8643 360.3 28.4544C342.081 46.6741 332.971 68.6688 332.971 94.4384C332.971 120.208 342.081 142.314 360.3 160.534C376.835 177.068 396.517 186.067 419.348 187.599V162.777V162.804Z" fill="#D7D7D7"/>
<path d="M420.043 188.365L419.305 188.309C396.391 186.777 376.374 177.597 359.812 161.035C341.551 142.774 332.288 120.361 332.288 94.4383C332.288 68.5155 341.551 46.2283 359.812 27.9667C376.444 11.3349 396.447 2.12752 419.305 0.581346L420.043 0.525627V26.7131L419.403 26.7688C412.563 27.3817 406.114 28.9557 400.208 31.4213C392.352 34.7225 384.983 39.779 378.297 46.4512C371.624 53.1234 366.582 60.4782 363.323 68.2926C360.063 76.1071 358.419 84.8966 358.419 94.4104C358.419 113.132 365.105 129.304 378.297 142.495C389.83 154.029 403.648 160.603 419.389 162.066L420.016 162.122V188.323L420.043 188.365ZM418.65 2.04394C396.461 3.71548 377.001 12.7697 360.801 28.9697C342.804 46.9666 333.681 69.003 333.681 94.4522C333.681 119.901 342.804 142.063 360.801 160.06C376.932 176.191 396.391 185.217 418.65 186.874V163.431C402.84 161.829 388.939 155.129 377.322 143.526C363.852 130.07 357.026 113.55 357.026 94.4522C357.026 84.7434 358.712 75.7728 362.041 67.7912C365.37 59.8096 370.51 52.3016 377.308 45.4901C384.119 38.6785 391.641 33.5246 399.665 30.1537C405.515 27.7021 411.895 26.1141 418.637 25.4455V2.01608L418.65 2.04394Z" fill="#D7D7D7"/>
<path d="M426.41 147.705C455.79 147.705 479.607 123.875 479.607 94.4801C479.607 65.085 455.79 41.2555 426.41 41.2555C397.03 41.2555 373.213 65.085 373.213 94.4801C373.213 123.875 397.03 147.705 426.41 147.705Z" fill="#E8793E"/>
</svg>
