<svg width="1964" height="1702" fill="none" xmlns="http://www.w3.org/2000/svg"><path d="M.132 1701.73c174.757-307.07 327.625-387.97 445.459-391.72 109.119-3.48 187.665 59.22 241.516 16.1 94.025-75.29-80.466-318.36 10.723-429.289 116.446-141.619 493.96 141.209 729.93-26.817 146.16-104.081 87.23-273.787 268.36-429.287 121.29-104.14 268.58-131.814 370.34-139.522" stroke="url(#a)" stroke-miterlimit="10"/><path d="M-6.485 1682.03c145.956-263.63 277.407-367 386.557-391.39 19.201-4.29 37.663-5.73 55.328-6.03 107.229-1.83 184.386 63.59 238.415 25.81 17.339-12.13 26.319-29.83 29.539-52.24 14.268-99.45-86.078-281.999-12.584-374.945 18.433-23.273 43.571-35.796 73.938-40.758 142.943-23.893 396.332 126.232 589.372 55.201 23.55-8.684 45.94-20.616 67.06-36.328 115.32-85.031 99.75-215.485 187.67-338.645 21.88-30.657 48.47-59.069 84.89-88.545a610.047 610.047 0 0 1 22.13-17.071c118.3-87.009 251.97-117.666 345.79-130.277" stroke="url(#b)" stroke-miterlimit="10"/><path d="M-13.102 1662.3c143.297-266.08 273.39-375.27 382.746-398.39 19.289-4.05 37.811-5.17 55.535-4.73 105.338 2.69 181.167 67.96 235.313 35.53 17.458-10.45 27.176-26.34 31.135-47.9 17.576-95.34-80.466-281.852-7.976-377.19 18.167-23.805 43.01-36.948 73.229-42.501 143.74-26.463 398.08 135.033 590.76 63.027 23.7-8.89 45.94-21.324 66.85-37.42 112.81-86.743 97.25-221.126 189.12-340.417 23.39-30.362 50.27-56.234 87.64-84.705a674.11 674.11 0 0 1 22.57-16.51c119.78-84.322 251.06-120.679 342.93-138.607" stroke="url(#c)" stroke-miterlimit="10"/><path d="M-19.748 1642.6c140.609-268.53 269.373-383.54 378.965-405.39 19.378-3.84 37.929-4.37 55.741-3.43 103.389 5.61 178.066 72.3 232.212 45.25 17.605-8.8 28.003-22.83 32.759-43.59 20.855-91.21-74.883-281.706-3.338-379.406 17.901-24.337 42.419-38.159 72.52-44.273 144.509-29.328 399.819 143.805 592.119 70.854 23.84-9.097 45.94-22.003 66.62-38.543 110.45-88.22 94.88-226.708 190.56-342.189 24.93-30.096 52.08-53.369 90.39-80.866a942.273 942.273 0 0 1 23.01-15.978c121.26-81.634 250.17-123.662 340.03-146.965" stroke="url(#d)" stroke-miterlimit="10"/><path d="M-26.365 1622.9c137.921-270.98 265.325-391.78 375.184-412.36 19.466-3.6 38.076-3.6 55.948-2.1 101.439 8.51 175.022 76.64 229.08 54.94 17.783-7.15 28.86-19.35 34.355-39.26 24.104-87.06-69.3-281.52 1.27-381.643 17.606-24.868 41.858-39.37 71.811-46.015 145.276-32.222 401.597 152.576 593.507 78.68 24.02-9.333 45.94-22.653 66.41-39.635 108.12-89.667 92.67-232.261 192.01-343.932 26.5-29.8 53.85-50.533 93.17-77.026 7.62-5.139 15.42-10.278 23.48-15.447 122.68-79.005 249.26-126.674 337.17-155.323" stroke="url(#e)" stroke-miterlimit="10"/><path d="M-32.982 1603.2c135.233-273.43 261.308-400.05 371.373-419.36 19.556-3.4 38.195-2.84 56.155-.8 99.46 11.28 172.128 81.02 225.979 64.65 18.019-5.46 29.687-15.86 35.95-34.91 27.294-82.9-63.688-281.374 5.908-383.859 17.34-25.4 41.267-40.581 71.102-47.758 146.044-35.117 403.335 161.378 594.905 86.507 24.16-9.539 45.93-23.332 66.16-40.758 105.79-91.085 90.57-237.724 193.46-345.703 28.09-29.476 55.62-47.669 95.91-73.187 7.74-4.903 15.69-9.865 23.93-14.915 124.07-76.377 248.34-129.687 334.27-163.652" stroke="url(#f)" stroke-miterlimit="10"/><path d="M-39.628 1583.5c132.544-275.85 257.29-408.28 367.592-426.36 19.614-3.16 38.313-2.07 56.332.53 97.451 13.97 169.321 85.47 222.877 74.37 18.256-3.78 30.485-12.35 37.574-30.57 30.485-78.74-58.104-281.228 10.546-386.105 17.074-25.902 40.706-41.822 70.393-49.501 146.813-38.04 405.074 170.15 596.284 94.334 24.32-9.746 45.97-23.982 65.97-41.851 103.47-92.502 88.59-243.129 194.9-347.446 29.72-29.18 57.37-44.863 98.66-69.318 7.86-4.666 15.95-9.421 24.37-14.383 125.46-73.807 247.43-132.67 331.41-172.01" stroke="url(#g)" stroke-miterlimit="10"/><path d="M-46.246 1563.77c129.857-278.3 253.244-416.55 363.811-433.36 19.703-2.95 38.431-1.33 56.539 1.83 95.443 16.6 166.604 90.05 219.776 84.09 18.551-2.07 31.312-8.83 39.169-26.26 33.617-74.54-52.492-281.081 15.154-388.321 16.808-26.434 40.115-43.032 69.684-51.273 147.581-40.994 407.003 179.305 597.643 102.131 24.49-9.923 45.97-24.632 65.73-42.973 101.2-93.861 86.73-248.475 196.32-349.218 31.37-28.826 59.11-42.028 101.41-65.478 7.98-4.431 16.22-9.008 24.81-13.852 126.79-71.238 246.51-135.682 328.52-180.339" stroke="url(#h)" stroke-miterlimit="10"/><path d="M-52.862 1544.07c127.168-280.75 249.226-424.82 360.03-440.36 19.791-2.72 38.549-.59 56.745 3.16 93.434 19.14 164.3 87.78 216.674 93.8 18.728 2.16 32.11-5.31 40.765-21.91 36.688-70.32-46.909-280.935 19.792-390.567 16.542-26.966 39.553-44.273 68.975-53.015 148.348-43.977 408.771 188.106 599.031 109.957 24.64-10.13 46-25.281 65.52-44.065 98.93-95.22 84.93-253.733 197.77-350.961 33.06-28.472 60.85-39.222 104.19-61.639 8.09-4.194 16.48-8.595 25.28-13.32 128.12-68.727 245.63-138.695 325.65-188.697" stroke="url(#i)" stroke-miterlimit="10"/><path d="M-59.509 1524.37c124.51-283.2 245.209-433.06 356.22-447.36 19.88-2.51 38.667.15 56.952 4.46 91.455 21.59 161.346 99.53 213.572 103.52 19.171 1.48 32.907-1.8 42.36-17.57 39.701-66.13-41.326-280.759 24.4-392.814 16.247-27.496 38.963-45.513 68.266-54.757 149.117-46.99 410.509 196.908 600.429 117.784 24.78-10.337 46.02-25.901 65.31-45.158 96.65-96.549 83.21-258.901 199.21-352.733 34.74-28.087 62.6-36.416 106.94-57.799a1293.33 1293.33 0 0 0 25.73-12.789c129.44-66.217 244.7-141.678 322.78-197.055" stroke="url(#j)" stroke-miterlimit="10"/><path d="M-66.126 1504.67c121.822-285.66 241.192-441.33 352.439-454.36 19.969-2.27 38.785.86 57.159 5.76 89.476 23.95 158.746 104.47 210.441 113.24 19.496 3.31 33.675 1.71 43.985-13.26 42.684-61.97-35.714-280.612 29.037-395.03 15.981-28.028 38.372-46.783 67.557-56.5C844.347 654.489 1106.78 910.2 1296.3 830.132c24.97-10.544 46.03-26.552 65.08-46.281 94.41-97.849 81.59-264.011 200.66-354.476 36.46-27.703 64.31-33.64 109.68-53.96a935.696 935.696 0 0 0 26.18-12.227c130.71-63.765 243.79-144.69 319.88-205.384" stroke="url(#k)" stroke-miterlimit="10"/><path d="M-72.743 1484.98c119.134-288.12 237.145-449.61 348.657-461.37 20.028-2.06 38.904 1.54 57.337 7.09 87.497 26.26 156.088 109.52 207.339 122.93 19.792 5.19 34.443 5.19 45.58-8.92 45.58-57.8-30.131-280.466 33.646-397.276 15.715-28.56 37.81-48.023 66.848-58.271C837.257 636.089 1100.69 903.614 1289.86 822.6c25.11-10.75 46.06-27.172 64.87-47.373 92.2-99.148 80-269.032 202.11-356.248 38.2-27.29 66.03-30.864 112.43-50.12 8.42-3.485 17.25-7.354 26.65-11.696 132.01-61.314 242.87-147.703 317.02-213.743" stroke="url(#l)" stroke-miterlimit="10"/><path d="M-79.36 1465.25c116.446-290.57 233.128-457.85 344.877-468.365 20.116-1.831 39.022 2.215 57.543 8.385 85.547 28.5 153.37 114.63 204.238 132.64 20.087 7.12 35.181 8.72 47.174-4.57 48.446-53.67-24.518-280.319 38.284-399.491 15.449-29.062 37.22-49.294 66.139-60.015 151.332-56.145 415.775 223.223 604.555 141.235 25.26-10.957 46.09-27.792 64.64-48.496 90.01-100.418 78.43-273.964 203.56-357.99 39.93-26.817 67.73-28.087 115.2-46.251 8.51-3.249 17.49-6.941 27.09-11.164 133.28-58.893 241.99-150.686 314.12-222.072" stroke="url(#m)" stroke-miterlimit="10"/><path d="M-86.006 1445.55c113.757-293.02 229.11-466.12 341.066-475.365 20.205-1.624 39.169 2.895 57.75 9.717 83.627 30.688 150.564 119.818 201.136 142.358 20.323 9.07 35.92 12.2 48.799-.24 51.252-49.59-18.935-280.163 42.892-401.728 15.183-29.593 36.629-50.534 65.43-61.757 152.041-59.246 417.513 231.995 605.953 149.062 25.4-11.194 46.14-28.442 64.42-49.589 87.82-101.688 76.92-278.837 205.01-359.762 41.71-26.345 69.44-25.341 117.95-42.412a505.431 505.431 0 0 0 27.53-10.632c134.52-56.53 241.07-153.699 311.26-230.43" stroke="url(#n)" stroke-miterlimit="10"/><path d="M-92.623 1425.85c111.07-295.47 225.063-474.39 337.285-482.364 20.294-1.388 39.288 3.544 57.957 11.016 81.736 32.784 147.698 125.048 198.034 152.078 20.56 11.01 36.659 15.65 50.395 4.07 54.028-45.54-13.352-279.987 47.529-403.944 14.888-30.125 36.038-51.804 64.722-63.499 152.749-62.378 419.111 240.382 607.331 156.888 25.56-11.46 46.18-29.062 64.19-50.711 85.67-102.929 75.45-283.651 206.46-361.534 43.48-25.843 71.16-22.624 120.7-38.573 8.71-2.806 17.99-6.113 28-10.101 135.79-54.166 240.16-156.681 308.4-238.758" stroke="url(#o)" stroke-miterlimit="10"/><path d="M-99.24 1406.15C9.171 1108.23 121.806 923.521 234.264 916.787c20.382-1.182 39.435 4.164 58.163 12.316 79.876 34.85 144.745 130.307 194.933 161.787 20.737 13.03 37.367 19.11 51.99 8.42 56.775-41.58-7.74-279.84 52.137-406.19 14.622-30.657 35.448-53.074 64.013-65.242 153.459-65.508 420.85 249.155 608.72 164.715 25.7-11.666 46.23-29.682 63.99-51.804 83.51-104.139 73.94-288.376 207.9-363.276 45.25-25.312 72.87-19.907 123.44-34.733 8.84-2.599 18.26-5.7 28.45-9.569 137.04-51.834 239.24-159.695 305.5-247.117" stroke="url(#p)" stroke-miterlimit="10"/><path d="M-105.886 1386.45C-.164 1086.11 111.142 895.551 223.806 890.087c20.442-.945 39.613 4.785 58.341 13.645 78.074 36.859 141.732 135.568 191.802 171.508 20.884 15 38.076 22.56 53.585 12.76 59.522-37.66-2.157-279.695 56.775-408.407 14.356-31.188 34.857-54.344 63.304-67.014 154.138-68.668 422.627 257.956 610.117 172.542 25.84-11.873 46.25-30.273 63.74-52.926 81.41-105.38 72.49-293.014 209.35-365.049 47.03-24.75 74.56-17.189 126.22-30.894 8.95-2.362 18.5-5.316 28.89-9.037 138.28-49.53 238.33-162.707 302.64-255.475" stroke="url(#q)" stroke-miterlimit="10"/><path d="M-112.503 1366.72c103.035-302.79 212.981-499.168 325.912-503.362 20.53-.738 39.79 5.405 58.547 14.945 76.301 38.838 138.66 140.787 188.7 181.227 21.032 16.98 38.815 25.99 55.21 17.07 62.269-33.82 3.456-279.547 61.383-410.652 14.091-31.72 34.266-55.614 62.565-68.756 154.818-71.858 424.366 266.727 611.476 180.368 25.99-12.08 46.31-30.893 63.54-54.019 79.31-106.561 71.01-297.621 210.79-366.791 48.83-24.16 76.27-14.502 128.97-27.054 9.04-2.156 18.76-4.903 29.33-8.477 139.52-47.255 237.44-165.689 299.74-263.803" stroke="url(#r)" stroke-miterlimit="10"/><path d="M-119.12 1347.02c100.347-305.24 208.964-507.408 322.131-510.361 20.619-.502 39.967 5.996 58.754 16.274 74.588 40.787 135.528 146.019 185.598 190.907 21.151 18.97 39.524 29.39 56.805 21.42 65.047-30.04 9.039-279.401 66.021-412.897 13.825-32.252 33.676-56.884 61.857-70.5 155.467-75.077 426.114 275.5 612.864 188.166 26.14-12.287 46.37-31.514 63.33-55.142 77.25-107.772 69.54-302.14 212.24-368.563 50.63-23.569 77.99-11.814 131.72-23.185 9.16-1.949 19.02-4.519 29.8-7.945 140.76-44.981 236.53-168.702 296.88-272.162" stroke="url(#s)" stroke-miterlimit="10"/><path d="M-125.737 1327.32c97.659-307.69 204.947-515.677 318.35-517.361 20.707-.295 40.174 6.557 58.961 17.573C324.507 870.24 383.941 978.75 434.07 1028.16c21.239 20.94 40.263 32.79 58.4 25.76 67.823-26.29 14.652-279.225 70.63-415.114 13.529-32.754 33.084-58.184 61.147-72.242 156.117-78.297 427.883 284.271 614.253 195.992 26.32-12.523 46.46-32.134 63.09-56.234 75.18-108.953 68.06-306.629 213.69-370.306 52.41-22.919 79.7-9.126 134.47-19.345 9.24-1.713 19.26-4.106 30.25-7.413 141.99-42.767 235.6-171.715 294-280.491" stroke="url(#t)" stroke-miterlimit="10"/><path d="M-132.383 1307.62c94.97-310.145 200.929-523.917 314.538-524.36 20.796-.059 40.381 7.147 59.169 18.902 71.308 44.598 129.147 156.386 179.394 210.348 21.328 22.92 41.001 36.15 59.995 30.09 70.659-22.59 20.235-279.069 75.267-417.351 13.264-33.285 32.465-59.482 60.439-74.014 156.649-81.722 429.621 293.073 615.641 203.819 26.46-12.729 46.58-32.695 62.89-57.356 73.34-110.017 66.55-311.059 215.13-372.078 54.21-22.269 81.42-6.468 137.25-15.506 9.36-1.506 19.49-3.721 30.69-6.881 143.15-40.817 234.69-174.698 291.11-288.85" stroke="url(#u)" stroke-miterlimit="10"/><path d="M-139 1287.89c92.312-312.595 196.882-532.186 310.758-531.359 131.422.975 218.003 295.079 297.258 274.669 91.189-23.48-4.106-417.883 139.604-495.322 157.358-84.765 431.37 301.844 617.03 211.645 144.56-70.263 93.52-360.737 279.23-432.299 65.35-25.164 91.37 3.19 171.16-18.016C1820.52 258.842 1909.84 119.497 1964.29 0" stroke="url(#v)" stroke-miterlimit="10"/><defs><linearGradient id="l" x1="-74.102" y1="813.917" x2="2013.91" y2="813.917" gradientUnits="userSpaceOnUse"><stop stop-color="#fff"/><stop offset=".48" stop-color="#F07F00"/><stop offset="1" stop-color="#fff"/></linearGradient><linearGradient id="a" x1="-1.138" y1="1001.05" x2="2066.58" y2="1001.05" gradientUnits="userSpaceOnUse"><stop stop-color="#fff"/><stop offset=".48" stop-color="#F07F00"/><stop offset="1" stop-color="#fff"/></linearGradient><linearGradient id="c" x1="-14.402" y1="967.025" x2="2057.01" y2="967.025" gradientUnits="userSpaceOnUse"><stop stop-color="#fff"/><stop offset=".48" stop-color="#F07F00"/><stop offset="1" stop-color="#fff"/></linearGradient><linearGradient id="d" x1="-21.048" y1="949.983" x2="2052.23" y2="949.983" gradientUnits="userSpaceOnUse"><stop stop-color="#fff"/><stop offset=".48" stop-color="#F07F00"/><stop offset="1" stop-color="#fff"/></linearGradient><linearGradient id="e" x1="-27.695" y1="932.971" x2="2047.47" y2="932.971" gradientUnits="userSpaceOnUse"><stop stop-color="#fff"/><stop offset=".48" stop-color="#F07F00"/><stop offset="1" stop-color="#fff"/></linearGradient><linearGradient id="f" x1="-34.311" y1="915.96" x2="2042.68" y2="915.96" gradientUnits="userSpaceOnUse"><stop stop-color="#fff"/><stop offset=".48" stop-color="#F07F00"/><stop offset="1" stop-color="#fff"/></linearGradient><linearGradient id="g" x1="-40.958" y1="898.948" x2="2037.9" y2="898.948" gradientUnits="userSpaceOnUse"><stop stop-color="#fff"/><stop offset=".48" stop-color="#F07F00"/><stop offset="1" stop-color="#fff"/></linearGradient><linearGradient id="h" x1="-47.575" y1="881.935" x2="2033.11" y2="881.935" gradientUnits="userSpaceOnUse"><stop stop-color="#fff"/><stop offset=".48" stop-color="#F07F00"/><stop offset="1" stop-color="#fff"/></linearGradient><linearGradient id="i" x1="-54.221" y1="864.953" x2="2028.3" y2="864.953" gradientUnits="userSpaceOnUse"><stop stop-color="#fff"/><stop offset=".48" stop-color="#F07F00"/><stop offset="1" stop-color="#fff"/></linearGradient><linearGradient id="j" x1="-60.838" y1="847.941" x2="2023.51" y2="847.941" gradientUnits="userSpaceOnUse"><stop stop-color="#fff"/><stop offset=".48" stop-color="#F07F00"/><stop offset="1" stop-color="#fff"/></linearGradient><linearGradient id="k" x1="-67.484" y1="830.929" x2="2018.73" y2="830.929" gradientUnits="userSpaceOnUse"><stop stop-color="#fff"/><stop offset=".48" stop-color="#F07F00"/><stop offset="1" stop-color="#fff"/></linearGradient><linearGradient id="b" x1="-7.785" y1="984.037" x2="2061.8" y2="984.037" gradientUnits="userSpaceOnUse"><stop stop-color="#fff"/><stop offset=".48" stop-color="#F07F00"/><stop offset="1" stop-color="#fff"/></linearGradient><linearGradient id="m" x1="-80.748" y1="796.935" x2="2009.1" y2="796.935" gradientUnits="userSpaceOnUse"><stop stop-color="#fff"/><stop offset=".48" stop-color="#F07F00"/><stop offset="1" stop-color="#fff"/></linearGradient><linearGradient id="n" x1="-87.365" y1="779.923" x2="2004.28" y2="779.923" gradientUnits="userSpaceOnUse"><stop stop-color="#fff"/><stop offset=".48" stop-color="#F07F00"/><stop offset="1" stop-color="#fff"/></linearGradient><linearGradient id="o" x1="-94.011" y1="762.911" x2="1999.47" y2="762.911" gradientUnits="userSpaceOnUse"><stop stop-color="#fff"/><stop offset=".48" stop-color="#F07F00"/><stop offset="1" stop-color="#fff"/></linearGradient><linearGradient id="p" x1="-100.628" y1="745.928" x2="1994.62" y2="745.928" gradientUnits="userSpaceOnUse"><stop stop-color="#fff"/><stop offset=".48" stop-color="#F07F00"/><stop offset="1" stop-color="#fff"/></linearGradient><linearGradient id="q" x1="-107.275" y1="728.916" x2="1989.81" y2="728.916" gradientUnits="userSpaceOnUse"><stop stop-color="#fff"/><stop offset=".48" stop-color="#F07F00"/><stop offset="1" stop-color="#fff"/></linearGradient><linearGradient id="r" x1="-113.891" y1="711.904" x2="1984.96" y2="711.904" gradientUnits="userSpaceOnUse"><stop stop-color="#fff"/><stop offset=".48" stop-color="#F07F00"/><stop offset="1" stop-color="#fff"/></linearGradient><linearGradient id="s" x1="-120.538" y1="694.892" x2="1980.12" y2="694.892" gradientUnits="userSpaceOnUse"><stop stop-color="#fff"/><stop offset=".48" stop-color="#F07F00"/><stop offset="1" stop-color="#fff"/></linearGradient><linearGradient id="t" x1="-127.155" y1="677.91" x2="1975.27" y2="677.91" gradientUnits="userSpaceOnUse"><stop stop-color="#fff"/><stop offset=".48" stop-color="#F07F00"/><stop offset="1" stop-color="#fff"/></linearGradient><linearGradient id="u" x1="-133.801" y1="660.898" x2="1970.43" y2="660.898" gradientUnits="userSpaceOnUse"><stop stop-color="#fff"/><stop offset=".48" stop-color="#F07F00"/><stop offset="1" stop-color="#fff"/></linearGradient><linearGradient id="v" x1="-140.418" y1="643.886" x2="1965.59" y2="643.886" gradientUnits="userSpaceOnUse"><stop stop-color="#fff"/><stop offset=".48" stop-color="#F07F00"/><stop offset="1" stop-color="#fff"/></linearGradient></defs></svg>