<svg width="2207" height="1703" viewBox="0 0 2207 1703" fill="none" xmlns="http://www.w3.org/2000/svg">
<path d="M140.132 1702.73C314.889 1395.66 467.757 1314.76 585.591 1311.01C694.71 1307.53 773.256 1370.23 827.107 1327.11C921.132 1251.82 746.641 1008.75 837.83 897.821C954.276 756.202 1331.79 1039.03 1567.76 871.004C1713.92 766.923 1654.99 597.217 1836.12 441.717C1957.41 337.577 2104.7 309.903 2206.46 302.195" stroke="url(#paint0_linear_217_97)" stroke-miterlimit="10"/>
<path d="M133.515 1683.03C279.471 1419.4 410.922 1316.03 520.072 1291.64C539.273 1287.35 557.735 1285.91 575.4 1285.61C682.629 1283.78 759.786 1349.2 813.815 1311.42C831.154 1299.29 840.134 1281.59 843.354 1259.18C857.622 1159.73 757.276 977.181 830.77 884.235C849.203 860.962 874.341 848.439 904.708 843.477C1047.65 819.584 1301.04 969.709 1494.08 898.678C1517.63 889.994 1540.02 878.062 1561.14 862.35C1676.46 777.319 1660.89 646.865 1748.81 523.705C1770.69 493.048 1797.28 464.636 1833.7 435.16C1840.97 429.283 1848.32 423.612 1855.83 418.089C1974.13 331.08 2107.8 300.423 2201.62 287.812" stroke="url(#paint1_linear_217_97)" stroke-miterlimit="10"/>
<path d="M126.898 1663.3C270.195 1397.22 400.288 1288.03 509.644 1264.91C528.933 1260.86 547.455 1259.74 565.179 1260.18C670.517 1262.87 746.346 1328.14 800.492 1295.71C817.95 1285.26 827.668 1269.37 831.627 1247.81C849.203 1152.47 751.161 965.958 823.651 870.62C841.818 846.815 866.661 833.672 896.88 828.119C1040.62 801.656 1294.96 963.152 1487.64 891.146C1511.34 882.256 1533.58 869.822 1554.49 853.726C1667.3 766.983 1651.74 632.6 1743.61 513.309C1767 482.947 1793.88 457.075 1831.25 428.604C1838.64 422.962 1846.14 417.469 1853.82 412.094C1973.6 327.772 2104.88 291.415 2196.75 273.487" stroke="url(#paint2_linear_217_97)" stroke-miterlimit="10"/>
<path d="M120.252 1643.6C260.861 1375.07 389.625 1260.06 499.217 1238.21C518.595 1234.37 537.146 1233.84 554.958 1234.78C658.347 1240.39 733.024 1307.08 787.17 1280.03C804.775 1271.23 815.173 1257.2 819.929 1236.44C840.784 1145.23 745.046 954.734 816.591 857.034C834.492 832.697 859.01 818.875 889.111 812.761C1033.62 783.433 1288.93 956.566 1481.23 883.615C1505.07 874.518 1527.17 861.612 1547.85 845.072C1658.3 756.852 1642.73 618.364 1738.41 502.883C1763.34 472.787 1790.49 449.514 1828.8 422.017C1836.3 416.642 1843.95 411.326 1851.81 406.039C1973.07 324.405 2101.98 282.377 2191.84 259.074" stroke="url(#paint3_linear_217_97)" stroke-miterlimit="10"/>
<path d="M113.635 1623.9C251.556 1352.92 378.96 1232.12 488.819 1211.54C508.285 1207.94 526.895 1207.94 544.767 1209.44C646.206 1217.95 719.789 1286.08 773.847 1264.38C791.63 1257.23 802.707 1245.03 808.202 1225.12C832.306 1138.06 738.902 943.6 809.472 843.477C827.078 818.609 851.33 804.107 881.283 797.462C1026.56 765.24 1282.88 950.038 1474.79 876.142C1498.81 866.809 1520.73 853.489 1541.2 836.507C1649.32 746.84 1633.87 604.246 1733.21 492.575C1759.71 462.775 1787.06 442.042 1826.38 415.549C1834 410.41 1841.8 405.271 1849.86 400.102C1972.54 321.097 2099.12 273.428 2187.03 244.779" stroke="url(#paint4_linear_217_97)" stroke-miterlimit="10"/>
<path d="M107.018 1604.2C242.251 1330.77 368.326 1204.15 478.391 1184.84C497.947 1181.44 516.586 1182 534.546 1184.04C634.006 1195.32 706.674 1265.06 760.525 1248.69C778.544 1243.23 790.212 1232.83 796.475 1213.78C823.769 1130.88 732.787 932.406 802.383 829.921C819.723 804.521 843.65 789.34 873.485 782.163C1019.53 747.046 1276.82 943.541 1468.39 868.67C1492.55 859.131 1514.32 845.338 1534.55 827.912C1640.34 736.827 1625.12 590.188 1728.01 482.209C1756.1 452.733 1783.63 434.54 1823.92 409.022C1831.66 404.119 1839.61 399.157 1847.85 394.107C1971.92 317.73 2096.19 264.42 2182.12 230.455" stroke="url(#paint5_linear_217_97)" stroke-miterlimit="10"/>
<path d="M100.372 1584.5C232.916 1308.65 357.662 1176.22 467.964 1158.14C487.578 1154.98 506.277 1156.07 524.296 1158.67C621.747 1172.64 693.617 1244.14 747.173 1233.04C765.429 1229.26 777.658 1220.69 784.747 1202.47C815.232 1123.73 726.643 921.242 795.293 816.365C812.367 790.463 835.999 774.543 865.686 766.864C1012.5 728.824 1270.76 937.014 1461.97 861.198C1486.29 851.452 1507.94 837.216 1527.94 819.347C1631.41 726.845 1616.53 576.218 1722.84 471.901C1752.56 442.721 1780.21 427.038 1821.5 402.583C1829.36 397.917 1837.45 393.162 1845.87 388.2C1971.33 314.393 2093.3 255.53 2177.28 216.19" stroke="url(#paint6_linear_217_97)" stroke-miterlimit="10"/>
<path d="M93.7544 1564.77C223.611 1286.47 346.998 1148.22 457.565 1131.41C477.268 1128.46 495.996 1130.08 514.104 1133.24C609.547 1149.84 680.708 1223.29 733.88 1217.33C752.431 1215.26 765.192 1208.5 773.049 1191.07C806.666 1116.53 720.557 909.989 788.203 802.749C805.011 776.315 828.318 759.717 857.887 751.476C1005.47 710.482 1264.89 930.781 1455.53 853.607C1480.02 843.684 1501.5 828.975 1521.26 810.634C1622.46 716.773 1607.99 562.159 1717.58 461.416C1748.95 432.59 1776.69 419.388 1818.99 395.938C1826.97 391.507 1835.21 386.93 1843.8 382.086C1970.59 310.848 2090.31 246.404 2172.32 201.747" stroke="url(#paint7_linear_217_97)" stroke-miterlimit="10"/>
<path d="M87.1377 1545.07C214.306 1264.32 336.364 1120.25 447.168 1104.71C466.959 1101.99 485.717 1104.12 503.913 1107.87C597.347 1127.01 668.213 1195.65 720.587 1201.67C739.315 1203.83 752.697 1196.36 761.352 1179.76C798.04 1109.44 714.443 898.825 781.144 789.193C797.686 762.227 820.697 744.92 850.119 736.178C998.467 692.201 1258.89 924.284 1449.15 846.135C1473.79 836.005 1495.15 820.854 1514.67 802.07C1613.6 706.85 1599.6 548.337 1712.44 451.109C1745.5 422.637 1773.29 411.887 1816.63 389.47C1824.72 385.276 1833.11 380.875 1841.91 376.15C1970.03 307.423 2087.54 237.455 2167.56 187.453" stroke="url(#paint8_linear_217_97)" stroke-miterlimit="10"/>
<path d="M80.4912 1525.37C205.001 1242.17 325.7 1092.31 436.711 1078.01C456.591 1075.5 475.378 1078.16 493.663 1082.47C585.118 1104.06 655.009 1182 707.235 1185.99C726.406 1187.47 740.142 1184.19 749.595 1168.42C789.296 1102.29 708.269 887.661 773.995 775.606C790.242 748.11 812.958 730.093 842.261 720.849C991.378 673.859 1252.77 917.757 1442.69 838.633C1467.47 828.296 1488.71 812.732 1508 793.475C1604.65 696.926 1591.21 534.574 1707.21 440.742C1741.95 412.655 1769.81 404.326 1814.15 382.943C1822.33 378.985 1830.87 374.762 1839.88 370.154C1969.32 303.937 2084.58 228.476 2162.66 173.099" stroke="url(#paint9_linear_217_97)" stroke-miterlimit="10"/>
<path d="M73.8745 1505.67C195.696 1220.01 315.066 1064.34 426.313 1051.31C446.282 1049.04 465.098 1052.17 483.472 1057.07C572.948 1081.02 642.218 1161.54 693.913 1170.31C713.409 1173.62 727.588 1172.02 737.898 1157.05C780.582 1095.08 702.184 876.438 766.935 762.02C782.916 733.992 805.307 715.237 834.492 705.52C984.347 655.489 1246.78 911.2 1436.3 831.132C1461.27 820.588 1482.33 804.58 1501.38 784.851C1595.79 687.002 1582.97 520.84 1702.04 430.375C1738.5 402.672 1766.35 396.735 1811.72 376.415C1820.03 372.694 1828.71 368.648 1837.9 364.188C1968.61 300.423 2081.69 219.498 2157.78 158.804" stroke="url(#paint10_linear_217_97)" stroke-miterlimit="10"/>
<path d="M67.2573 1485.98C186.391 1197.86 304.402 1036.37 415.914 1024.61C435.942 1022.55 454.818 1026.15 473.251 1031.7C560.748 1057.96 629.339 1141.22 680.59 1154.63C700.382 1159.82 715.033 1159.82 726.17 1145.71C771.75 1087.91 696.039 865.244 759.816 748.434C775.531 719.874 797.626 700.411 826.664 690.163C977.257 637.089 1240.69 904.614 1429.86 823.6C1454.97 812.85 1475.92 796.428 1494.73 776.227C1586.93 677.079 1574.73 507.195 1696.84 419.979C1735.04 392.689 1762.87 389.115 1809.27 369.859C1817.69 366.374 1826.52 362.505 1835.92 358.163C1967.93 296.849 2078.79 210.46 2152.94 144.42" stroke="url(#paint11_linear_217_97)" stroke-miterlimit="10"/>
<path d="M60.6406 1466.25C177.086 1175.68 293.768 1008.4 405.517 997.885C425.633 996.054 444.539 1000.1 463.06 1006.27C548.607 1034.77 616.43 1120.9 667.298 1138.91C687.385 1146.03 702.479 1147.63 714.472 1134.34C762.918 1080.67 689.954 854.021 752.756 734.849C768.205 705.787 789.976 685.555 818.895 674.834C970.227 618.689 1234.67 898.057 1423.45 816.069C1448.71 805.112 1469.54 788.277 1488.09 767.573C1578.1 667.155 1566.52 493.609 1691.65 409.583C1731.58 382.766 1759.38 381.496 1806.85 363.332C1815.36 360.083 1824.34 356.391 1833.94 352.168C1967.22 293.275 2075.93 201.482 2148.06 130.096" stroke="url(#paint12_linear_217_97)" stroke-miterlimit="10"/>
<path d="M53.9941 1446.55C167.752 1153.53 283.104 980.43 395.06 971.185C415.265 969.561 434.229 974.08 452.81 980.902C536.437 1011.59 603.374 1100.72 653.946 1123.26C674.269 1132.33 689.866 1135.46 702.745 1123.02C753.997 1073.43 683.81 842.857 745.637 721.292C760.82 691.699 782.266 670.758 811.067 659.535C963.108 600.289 1228.58 891.53 1417.02 808.597C1442.42 797.403 1463.16 780.155 1481.44 759.008C1569.26 657.32 1558.36 480.171 1686.45 399.246C1728.16 372.901 1755.89 373.905 1804.4 356.834C1813.02 353.792 1822.15 350.307 1831.93 346.202C1966.45 289.672 2073 192.503 2143.19 115.772" stroke="url(#paint13_linear_217_97)" stroke-miterlimit="10"/>
<path d="M47.3774 1426.85C158.447 1131.38 272.44 952.46 384.662 944.486C404.956 943.098 423.95 948.03 442.619 955.502C524.355 988.286 590.317 1080.55 640.653 1107.58C661.213 1118.59 677.312 1123.23 691.048 1111.65C745.076 1066.11 677.696 831.663 738.577 707.706C753.465 677.581 774.615 655.902 803.299 644.207C956.048 581.829 1222.41 884.589 1410.63 801.095C1436.19 789.635 1456.81 772.033 1474.82 750.384C1560.49 647.455 1550.27 466.733 1681.28 388.85C1724.76 363.007 1752.44 366.226 1801.98 350.277C1810.69 347.471 1819.97 344.164 1829.98 340.176C1965.77 286.01 2070.14 183.495 2138.38 101.418" stroke="url(#paint14_linear_217_97)" stroke-miterlimit="10"/>
<path d="M40.7603 1407.15C149.171 1109.23 261.806 924.521 374.264 917.787C394.646 916.605 413.699 921.951 432.427 930.103C512.303 964.953 577.172 1060.41 627.36 1091.89C648.097 1104.92 664.727 1111 679.35 1100.31C736.125 1058.73 671.61 820.47 731.487 694.12C746.109 663.463 766.935 641.046 795.5 628.878C948.959 563.37 1216.35 878.033 1404.22 793.593C1429.92 781.927 1450.45 763.911 1468.21 741.789C1551.72 637.65 1542.15 453.413 1676.11 378.513C1721.36 353.201 1748.98 358.606 1799.55 343.78C1808.39 341.181 1817.81 338.08 1828 334.211C1965.04 282.377 2067.24 174.516 2133.5 87.0938" stroke="url(#paint15_linear_217_97)" stroke-miterlimit="10"/>
<path d="M34.1138 1387.45C139.836 1087.11 251.142 896.551 363.806 891.087C384.248 890.142 403.419 895.872 422.147 904.732C500.221 941.591 563.879 1040.3 613.949 1076.24C634.833 1091.24 652.025 1098.8 667.534 1089C727.056 1051.34 665.377 809.305 724.309 680.593C738.665 649.405 759.166 626.249 787.613 613.579C941.751 544.911 1210.24 871.535 1397.73 786.121C1423.57 774.248 1443.98 755.848 1461.47 733.195C1542.88 627.815 1533.96 440.181 1670.82 368.146C1717.85 343.396 1745.38 350.957 1797.04 337.252C1805.99 334.89 1815.54 331.936 1825.93 328.215C1964.21 278.685 2064.26 165.508 2128.57 72.7397" stroke="url(#paint16_linear_217_97)" stroke-miterlimit="10"/>
<path d="M27.4971 1367.72C130.532 1064.93 240.478 868.552 353.409 864.358C373.939 863.62 393.199 869.763 411.956 879.303C488.257 918.141 550.616 1020.09 600.656 1060.53C621.688 1077.51 639.471 1086.52 655.866 1077.6C718.135 1043.78 659.322 798.053 717.249 666.948C731.34 635.228 751.515 611.334 779.814 598.192C934.632 526.334 1204.18 864.919 1391.29 778.56C1417.28 766.48 1437.6 747.667 1454.83 724.541C1534.14 617.98 1525.84 426.92 1665.62 357.75C1714.45 333.59 1741.89 343.248 1794.59 330.696C1803.63 328.54 1813.35 325.793 1823.92 322.219C1963.44 274.964 2061.36 156.53 2123.66 58.4155" stroke="url(#paint17_linear_217_97)" stroke-miterlimit="10"/>
<path d="M20.8804 1348.02C121.227 1042.78 229.844 840.612 343.011 837.659C363.63 837.157 382.978 843.655 401.765 853.933C476.353 894.72 537.293 999.952 587.363 1044.84C608.514 1063.81 626.887 1074.23 644.168 1066.26C709.215 1036.22 653.207 786.859 710.189 653.363C724.014 621.111 743.865 596.479 772.046 582.863C927.513 507.786 1198.16 858.363 1384.91 771.029C1411.05 758.742 1431.28 739.515 1448.24 715.887C1525.49 608.115 1517.78 413.747 1660.48 347.324C1711.11 323.755 1738.47 335.51 1792.2 324.139C1801.36 322.19 1811.22 319.62 1822 316.194C1962.76 271.213 2058.53 147.492 2118.88 44.0322" stroke="url(#paint18_linear_217_97)" stroke-miterlimit="10"/>
<path d="M14.2632 1328.32C111.921 1020.63 219.21 812.643 332.613 810.959C353.32 810.664 372.787 817.516 391.574 828.532C464.507 871.24 523.941 979.75 574.07 1029.16C595.309 1050.1 614.333 1061.95 632.47 1054.92C700.293 1028.63 647.122 775.695 703.1 639.806C716.629 607.052 736.184 581.622 764.247 567.564C920.364 489.267 1192.13 851.835 1378.5 763.556C1404.82 751.033 1424.96 731.422 1441.59 707.322C1516.77 598.369 1509.65 400.693 1655.28 337.016C1707.69 314.097 1734.98 327.89 1789.75 317.671C1798.99 315.958 1809.01 313.565 1820 310.258C1961.99 267.491 2055.6 138.543 2114 29.7666" stroke="url(#paint19_linear_217_97)" stroke-miterlimit="10"/>
<path d="M7.6167 1308.62C102.587 998.475 208.546 784.703 322.155 784.26C342.951 784.201 362.536 791.407 381.324 803.162C452.632 847.76 510.471 959.548 560.718 1013.51C582.046 1036.43 601.719 1049.66 620.713 1043.6C691.372 1021.01 640.948 764.531 695.98 626.249C709.244 592.964 728.445 566.767 756.419 552.235C913.068 470.513 1186.04 845.308 1372.06 756.054C1398.52 743.325 1418.64 723.359 1434.95 698.698C1508.29 588.681 1501.5 387.639 1650.08 326.62C1704.29 304.351 1731.5 320.152 1787.33 311.114C1796.69 309.608 1806.82 307.393 1818.02 304.233C1961.17 263.416 2052.71 129.535 2109.13 15.3833" stroke="url(#paint20_linear_217_97)" stroke-miterlimit="10"/>
<path d="M1 1288.89C93.3116 976.295 197.882 756.704 311.758 757.531C443.18 758.506 529.761 1052.61 609.016 1032.2C700.205 1008.72 604.91 614.317 748.62 536.878C905.978 452.113 1179.99 838.722 1365.65 748.523C1510.21 678.26 1459.17 387.786 1644.88 316.224C1710.23 291.06 1736.25 319.414 1816.04 298.208C1960.52 259.842 2049.84 120.497 2104.29 1" stroke="url(#paint21_linear_217_97)" stroke-miterlimit="10"/>
<defs>
<linearGradient id="paint0_linear_217_97" x1="138.862" y1="1002.05" x2="2206.58" y2="1002.05" gradientUnits="userSpaceOnUse">
<stop stop-color="white"/>
<stop offset="0.48" stop-color="#F07F00"/>
<stop offset="1" stop-color="white"/>
</linearGradient>
<linearGradient id="paint1_linear_217_97" x1="132.215" y1="985.037" x2="2201.8" y2="985.037" gradientUnits="userSpaceOnUse">
<stop stop-color="white"/>
<stop offset="0.48" stop-color="#F07F00"/>
<stop offset="1" stop-color="white"/>
</linearGradient>
<linearGradient id="paint2_linear_217_97" x1="125.598" y1="968.025" x2="2197.01" y2="968.025" gradientUnits="userSpaceOnUse">
<stop stop-color="white"/>
<stop offset="0.48" stop-color="#F07F00"/>
<stop offset="1" stop-color="white"/>
</linearGradient>
<linearGradient id="paint3_linear_217_97" x1="118.952" y1="950.983" x2="2192.23" y2="950.983" gradientUnits="userSpaceOnUse">
<stop stop-color="white"/>
<stop offset="0.48" stop-color="#F07F00"/>
<stop offset="1" stop-color="white"/>
</linearGradient>
<linearGradient id="paint4_linear_217_97" x1="112.305" y1="933.971" x2="2187.47" y2="933.971" gradientUnits="userSpaceOnUse">
<stop stop-color="white"/>
<stop offset="0.48" stop-color="#F07F00"/>
<stop offset="1" stop-color="white"/>
</linearGradient>
<linearGradient id="paint5_linear_217_97" x1="105.689" y1="916.96" x2="2182.68" y2="916.96" gradientUnits="userSpaceOnUse">
<stop stop-color="white"/>
<stop offset="0.48" stop-color="#F07F00"/>
<stop offset="1" stop-color="white"/>
</linearGradient>
<linearGradient id="paint6_linear_217_97" x1="99.0423" y1="899.948" x2="2177.9" y2="899.948" gradientUnits="userSpaceOnUse">
<stop stop-color="white"/>
<stop offset="0.48" stop-color="#F07F00"/>
<stop offset="1" stop-color="white"/>
</linearGradient>
<linearGradient id="paint7_linear_217_97" x1="92.4251" y1="882.935" x2="2173.11" y2="882.935" gradientUnits="userSpaceOnUse">
<stop stop-color="white"/>
<stop offset="0.48" stop-color="#F07F00"/>
<stop offset="1" stop-color="white"/>
</linearGradient>
<linearGradient id="paint8_linear_217_97" x1="85.7789" y1="865.953" x2="2168.3" y2="865.953" gradientUnits="userSpaceOnUse">
<stop stop-color="white"/>
<stop offset="0.48" stop-color="#F07F00"/>
<stop offset="1" stop-color="white"/>
</linearGradient>
<linearGradient id="paint9_linear_217_97" x1="79.1619" y1="848.941" x2="2163.51" y2="848.941" gradientUnits="userSpaceOnUse">
<stop stop-color="white"/>
<stop offset="0.48" stop-color="#F07F00"/>
<stop offset="1" stop-color="white"/>
</linearGradient>
<linearGradient id="paint10_linear_217_97" x1="72.5157" y1="831.929" x2="2158.73" y2="831.929" gradientUnits="userSpaceOnUse">
<stop stop-color="white"/>
<stop offset="0.48" stop-color="#F07F00"/>
<stop offset="1" stop-color="white"/>
</linearGradient>
<linearGradient id="paint11_linear_217_97" x1="65.8985" y1="814.917" x2="2153.91" y2="814.917" gradientUnits="userSpaceOnUse">
<stop stop-color="white"/>
<stop offset="0.48" stop-color="#F07F00"/>
<stop offset="1" stop-color="white"/>
</linearGradient>
<linearGradient id="paint12_linear_217_97" x1="59.2523" y1="797.935" x2="2149.1" y2="797.935" gradientUnits="userSpaceOnUse">
<stop stop-color="white"/>
<stop offset="0.48" stop-color="#F07F00"/>
<stop offset="1" stop-color="white"/>
</linearGradient>
<linearGradient id="paint13_linear_217_97" x1="52.6353" y1="780.923" x2="2144.28" y2="780.923" gradientUnits="userSpaceOnUse">
<stop stop-color="white"/>
<stop offset="0.48" stop-color="#F07F00"/>
<stop offset="1" stop-color="white"/>
</linearGradient>
<linearGradient id="paint14_linear_217_97" x1="45.9891" y1="763.911" x2="2139.47" y2="763.911" gradientUnits="userSpaceOnUse">
<stop stop-color="white"/>
<stop offset="0.48" stop-color="#F07F00"/>
<stop offset="1" stop-color="white"/>
</linearGradient>
<linearGradient id="paint15_linear_217_97" x1="39.3719" y1="746.928" x2="2134.62" y2="746.928" gradientUnits="userSpaceOnUse">
<stop stop-color="white"/>
<stop offset="0.48" stop-color="#F07F00"/>
<stop offset="1" stop-color="white"/>
</linearGradient>
<linearGradient id="paint16_linear_217_97" x1="32.7254" y1="729.916" x2="2129.81" y2="729.916" gradientUnits="userSpaceOnUse">
<stop stop-color="white"/>
<stop offset="0.48" stop-color="#F07F00"/>
<stop offset="1" stop-color="white"/>
</linearGradient>
<linearGradient id="paint17_linear_217_97" x1="26.1087" y1="712.904" x2="2124.96" y2="712.904" gradientUnits="userSpaceOnUse">
<stop stop-color="white"/>
<stop offset="0.48" stop-color="#F07F00"/>
<stop offset="1" stop-color="white"/>
</linearGradient>
<linearGradient id="paint18_linear_217_97" x1="19.4625" y1="695.892" x2="2120.12" y2="695.892" gradientUnits="userSpaceOnUse">
<stop stop-color="white"/>
<stop offset="0.48" stop-color="#F07F00"/>
<stop offset="1" stop-color="white"/>
</linearGradient>
<linearGradient id="paint19_linear_217_97" x1="12.8453" y1="678.91" x2="2115.27" y2="678.91" gradientUnits="userSpaceOnUse">
<stop stop-color="white"/>
<stop offset="0.48" stop-color="#F07F00"/>
<stop offset="1" stop-color="white"/>
</linearGradient>
<linearGradient id="paint20_linear_217_97" x1="6.19879" y1="661.898" x2="2110.43" y2="661.898" gradientUnits="userSpaceOnUse">
<stop stop-color="white"/>
<stop offset="0.48" stop-color="#F07F00"/>
<stop offset="1" stop-color="white"/>
</linearGradient>
<linearGradient id="paint21_linear_217_97" x1="-0.417906" y1="644.886" x2="2105.59" y2="644.886" gradientUnits="userSpaceOnUse">
<stop stop-color="white"/>
<stop offset="0.48" stop-color="#F07F00"/>
<stop offset="1" stop-color="white"/>
</linearGradient>
</defs>
</svg>
