<svg width="1788" height="1702" fill="none" xmlns="http://www.w3.org/2000/svg"><path d="M1551.51 9.305c-121.42 389.678-68.67 584.709 21.63 689.512 83.61 97.062 199.02 116.265 205.22 196.33 10.83 139.793-333.44 177.753-355.05 342.793-27.56 210.71 511.42 317.41 556.31 651.99 27.8 207.24-162.67 288.13-150.67 565.57 8.02 185.79 101.42 334.64 175.62 428.62" stroke="url(#a)" stroke-miterlimit="10"/><path d="M1529.58 18.888c-107.48 331.021-90.74 524.996-24.82 638.329 11.6 19.93 25.02 37.018 38.79 52.522 83.51 94.141 200.11 110.033 210.98 186.098 3.48 24.424-4.38 45.934-20.81 66.134-72.9 89.599-307.1 144.659-327.51 280.419-5.09 34.02 4.24 65.48 24.13 95.6 93.16 142.16 421.3 244.63 514.27 466.73 11.33 27.11 18.98 55.74 22.43 86.21 19.47 165.78-103.35 253.67-137.92 425.37-8.6 42.74-11.57 87.81-7.64 142.2a727.05 727.05 0 0 0 3.09 32.39c20.16 169.9 100.23 309.3 163.98 400.22" stroke="url(#b)" stroke-miterlimit="10"/><path d="M1507.62 28.494c-111.66 330.627-100.93 527.947-33.77 640.472 11.88 19.823 25.62 36.71 40.05 51.691 85.84 88.996 201.27 103.853 216.76 175.867 4.99 23.219-.76 43.967-15.88 64.14-66.79 89.266-302.52 149.396-325.75 286.146-5.75 34.2 2.83 65.9 22.1 96.34 91.61 144.85 430.13 239.3 522 461.86 11.26 27.39 18.38 56.28 21.34 86.87 16.02 164.94-110.13 255.88-138.28 428-7.15 43.82-7.74 87.16-2.21 141.59 1.08 10.77 2.38 21.53 3.92 32.35 23.61 169.08 96.96 310.84 154.65 404.2" stroke="url(#c)" stroke-miterlimit="10"/><path d="M1485.67 38.052c-115.87 330.207-111.13 530.899-42.7 642.641 12.12 19.739 26.38 36.193 41.32 50.86 86.76 85.039 202.48 97.799 222.52 165.636 6.51 22.062 2.88 41.952-10.93 62.195-60.7 88.886-297.97 154.106-323.96 291.876-6.41 34.39 1.34 66.33 20.04 97.1 89.79 147.74 438.94 234 529.71 456.96 11.2 27.68 17.8 56.81 20.2 87.54 12.9 164.04-116.73 258.17-138.63 430.63-5.71 44.94-3.89 86.49 3.22 140.98 1.4 10.67 2.97 21.41 4.72 32.31 27.06 168.28 93.73 312.4 145.27 408.2" stroke="url(#d)" stroke-miterlimit="10"/><path d="M1463.74 47.636c-120.08 329.787-121.32 533.8-51.6 644.786 12.39 19.632 27.15 35.724 42.6 50.007 87.67 81.104 203.74 91.794 228.24 155.402 8.06 20.929 6.51 39.985-5.99 60.201-54.61 88.488-293.38 158.798-322.2 297.608-7.09 34.54-.13 66.78 18 97.84 87.95 150.65 447.78 228.71 537.44 452.07 11.15 28.02 17.25 57.32 19.11 88.22 9.83 163.15-123.19 260.57-138.96 433.23-4.21 46.06-.07 85.82 8.68 140.4 1.69 10.58 3.53 21.32 5.55 32.31 30.41 167.46 90.44 313.94 135.92 412.21" stroke="url(#e)" stroke-miterlimit="10"/><path d="M1441.81 57.22c-124.29 329.367-131.51 536.751-60.56 646.929 12.64 19.548 27.9 35.23 43.87 49.176 88.45 77.236 205.15 85.895 234.01 145.171 9.67 19.826 10.12 37.992-1.04 58.207-48.56 88.007-288.81 163.537-320.4 303.337-7.75 34.73-1.63 67.21 15.96 98.59 86.11 153.56 456.61 223.38 545.17 447.19 11.09 28.3 16.67 57.84 17.97 88.88 6.77 162.23-129.48 263-139.31 435.86-2.68 47.19 3.76 85.13 14.11 139.79 1.98 10.5 4.09 21.23 6.35 32.28 33.73 166.62 87.17 315.49 126.57 416.18" stroke="url(#f)" stroke-miterlimit="10"/><path d="M1419.85 66.777c-128.47 328.925-141.67 539.681-69.48 649.099 12.88 19.415 28.64 34.735 45.14 48.297 89.13 73.411 206.7 80.003 239.78 134.939 11.27 18.723 13.72 35.952 3.91 56.239-42.5 87.539-284.25 168.249-318.61 309.089-8.4 34.89-3.13 67.69 13.92 99.33 84.24 156.5 465.42 218.07 552.89 442.31 11.03 28.59 16.15 58.37 16.89 89.55 3.74 161.34-135.63 265.49-139.64 438.47-1.14 48.36 7.51 84.45 19.56 139.16 2.28 10.42 4.68 21.11 7.15 32.25 37.02 165.82 83.92 317.02 117.22 420.2" stroke="url(#g)" stroke-miterlimit="10"/><path d="M1397.89 76.383c-132.68 328.505-151.88 542.606-78.4 651.268 13.12 19.331 29.36 34.263 46.4 47.465 89.76 69.632 208.42 74.098 245.54 124.709 12.97 17.647 17.36 33.936 8.84 54.268-36.46 86.987-279.68 172.987-316.84 314.797-9.05 35.07-4.62 68.12 11.86 100.09 82.35 159.46 474.7 212.62 560.58 437.43 11.02 28.88 15.6 58.88 15.74 90.22.79 160.43-141.63 268.03-140.01 441.06.48 49.53 11.3 83.77 24.99 138.56 2.58 10.34 5.24 21.02 7.96 32.22 40.24 164.97 80.64 318.57 107.87 424.17" stroke="url(#h)" stroke-miterlimit="10"/><path d="M1375.96 85.967c-136.89 328.085-162.07 545.557-87.33 653.436 13.4 19.224 30.08 33.792 47.69 46.612 90.32 65.922 204.66 73.871 251.31 114.477 16.69 14.519 20.97 31.895 13.78 52.275-30.45 86.353-275.13 177.703-315.06 320.553-9.71 35.25-6.12 68.6 9.82 100.83 80.43 162.44 483.56 207.31 568.31 432.55 10.96 29.17 15.07 59.41 14.65 90.88-2.16 159.52-147.51 270.57-140.34 443.68 2.11 50.7 15.06 83.09 30.45 137.97 2.87 10.26 5.8 20.93 8.78 32.22 43.42 164.17 77.38 320.14 98.52 428.18" stroke="url(#i)" stroke-miterlimit="10"/><path d="M1354.01 95.525c-141.08 327.69-172.24 548.485-96.29 655.579 13.64 19.141 30.8 33.32 48.96 45.781 90.83 62.306 212.27 62.185 257.08 104.246 16.46 15.43 24.58 29.854 18.72 50.281-24.51 85.708-270.55 182.388-313.31 326.278-10.39 35.41-7.63 69.05 7.78 101.57 78.5 165.45 492.4 201.98 576.04 427.67 10.91 29.46 14.58 59.92 13.57 91.56-5.09 158.58-153.25 273.1-140.69 446.3 3.77 51.86 18.81 82.42 35.88 137.37 3.13 10.15 6.33 20.81 9.57 32.18 46.61 163.37 74.14 321.67 89.17 432.2" stroke="url(#j)" stroke-miterlimit="10"/><path d="M1332.07 105.109c-145.28 327.27-182.43 551.436-105.21 657.748 13.92 19.033 31.49 32.872 50.22 44.95 91.26 58.759 214.4 56.105 262.83 93.99 18.27 14.288 28.16 27.787 23.66 48.335-18.61 85.048-265.97 187.128-311.5 332.008-11.06 35.6-9.18 69.53 5.74 102.31 76.5 168.45 501.23 196.7 583.77 422.79 10.87 29.78 14.02 60.42 12.43 92.23-7.98 157.65-158.87 275.66-141.02 448.91 5.45 53.04 22.52 81.74 41.31 136.76 3.43 10.07 6.89 20.72 10.4 32.13 49.69 162.56 70.86 323.21 79.82 436.16" stroke="url(#k)" stroke-miterlimit="10"/><path d="M1310.14 114.692C1160.65 441.542 1117.5 669.053 1196 774.608c14.14 18.924 32.16 32.447 51.49 44.071 91.64 55.258 216.56 49.883 268.57 83.782 20.1 13.075 31.73 25.744 28.6 46.341-12.79 84.318-261.41 191.838-309.74 337.738-11.72 35.78-10.68 70.01 3.67 103.08 74.52 171.45 510.05 191.39 591.5 417.9 10.81 30.07 13.52 60.93 11.34 92.9-10.83 156.75-164.38 278.18-141.37 451.54 7.19 54.22 26.23 81.06 46.74 136.15 3.73 9.99 7.46 20.63 11.23 32.13 52.79 161.78 67.58 324.76 70.47 440.18" stroke="url(#l)" stroke-miterlimit="10"/><path d="M1288.19 124.298c-153.7 326.431-202.81 557.29-123.07 662.086 14.4 18.817 32.83 32.021 52.75 43.24 92 51.828 218.73 43.563 274.34 73.55 21.96 11.839 35.29 23.652 33.54 44.348-7.01 83.578-256.83 196.578-307.94 343.468-12.36 35.94-12.22 70.48 1.64 103.82 72.5 174.47 518.86 186.08 599.18 413.02 10.75 30.35 13.02 61.44 10.2 93.57-13.64 155.84-169.8 280.66-141.7 454.14 8.97 55.37 29.95 80.39 52.22 135.55 4 9.88 7.99 20.51 12.03 32.09 55.86 161 64.35 326.32 61.12 444.15" stroke="url(#m)" stroke-miterlimit="10"/><path d="M1266.23 133.856c-157.91 326.011-213 560.241-132.02 664.229 14.65 18.733 33.52 31.62 54.04 42.386 92.33 48.47 220.91 37.098 280.11 63.319 23.8 10.529 38.83 21.583 38.51 42.38-1.34 82.84-252.28 201.29-306.19 349.2-13.02 36.12-13.74 70.93-.4 104.56 70.44 177.49 527.67 180.77 606.91 408.14 10.67 30.66 12.52 61.99 9.11 94.23-16.45 154.94-175.12 283.15-142.05 456.77 10.78 56.54 33.63 79.74 57.65 134.94 4.27 9.83 8.56 20.43 12.84 32.07 58.84 160.24 61.07 327.86 51.76 448.17" stroke="url(#n)" stroke-miterlimit="10"/><path d="M1244.3 143.44c-162.12 325.591-223.21 563.166-140.95 666.397 14.93 18.626 34.17 31.218 55.31 41.556 92.6 45.206 223.06 30.559 285.88 53.088 25.63 9.218 42.33 19.536 43.42 40.409 4.29 82.1-247.7 205.98-304.38 354.93-13.71 36.28-15.29 71.41-2.44 105.3 68.35 180.54 536.04 175.64 614.64 403.26 10.56 31 12.01 62.5 7.97 94.9-19.21 154.04-180.37 285.61-142.4 459.4 12.61 57.68 37.29 79.11 63.08 134.33 4.53 9.72 9.09 20.31 13.66 32.07 61.85 159.5 57.82 329.39 42.44 452.16" stroke="url(#o)" stroke-miterlimit="10"/><path d="M1222.37 153.023c-166.3 325.197-233.381 566.095-149.88 668.567 15.17 18.542 34.81 30.863 56.57 40.724 92.88 41.991 225.18 23.921 291.65 42.857 27.48 7.811 45.82 17.465 48.37 38.415 9.82 81.404-243.13 210.724-302.63 360.654-14.37 36.47-16.83 71.89-4.48 106.04 66.26 183.59 544.85 170.33 622.37 398.39 10.51 31.28 11.53 63.03 6.88 95.57-21.95 153.11-185.56 287.98-142.73 462 14.47 58.8 40.95 78.48 68.51 133.73a460.25 460.25 0 0 1 14.47 32.03c64.8 158.76 54.53 330.94 33.06 456.15" stroke="url(#p)" stroke-miterlimit="10"/><path d="M1200.41 162.581c-170.48 324.754-243.567 569.045-158.82 670.709 15.41 18.41 35.47 30.536 57.83 39.846 93.15 38.872 227.24 17.23 297.39 32.599 29.28 6.402 49.32 15.394 53.32 36.422 15.32 80.723-238.58 215.433-300.83 366.393-15.03 36.64-18.37 72.36-6.54 106.8 64.12 186.63 553.71 165.02 630.1 393.5 10.45 31.58 11.05 63.52 5.74 96.24-24.66 152.27-190.64 290.33-143.08 464.63 16.34 59.9 44.59 77.83 73.96 133.15 5.1 9.57 10.17 20.12 15.27 32 67.74 158.04 51.26 332.49 23.71 460.16" stroke="url(#q)" stroke-miterlimit="10"/><path d="M1178.45 172.188c-174.69 324.334-253.778 571.971-167.75 672.878 15.66 18.326 36.14 30.207 59.1 39.014 93.42 35.803 229.23 10.513 303.16 22.369 31.07 4.993 52.8 13.371 58.26 34.476 20.75 80.115-234 220.175-299.08 372.115-15.68 36.83-19.92 72.84-8.6 107.52 61.96 189.7 562.52 159.72 637.81 388.6 10.39 31.86 10.57 64.05 4.65 96.91-27.33 151.37-195.71 292.63-143.41 467.24 18.28 60.99 48.22 77.21 79.4 132.53 5.34 9.49 10.72 20.03 16.09 31.95 70.65 157.35 48.03 334.04 14.36 464.13" stroke="url(#r)" stroke-miterlimit="10"/><path d="M1156.52 181.771C977.622 505.686 892.576 756.67 979.845 856.818c15.93 18.219 36.785 29.901 60.385 38.161 93.71 32.806 231.17 3.744 308.91 12.16 32.83 3.557 56.24 11.345 63.19 32.483 26.16 79.578-229.44 224.888-297.29 377.868-16.35 37.01-21.46 73.32-10.64 108.26 59.74 192.76 571.33 154.41 645.51 383.74 10.33 32.15 10.1 64.59 3.54 97.61-29.99 150.52-200.72 294.86-143.76 469.86 20.2 62.09 51.85 76.61 84.85 131.91 5.61 9.43 11.26 19.96 16.91 31.94 73.56 156.66 44.76 335.59 5.01 468.15" stroke="url(#s)" stroke-miterlimit="10"/><path d="M1134.59 191.354C951.481 514.849 860.453 769.205 948.985 868.57c16.176 18.135 37.421 29.644 61.655 37.33 94.02 29.885 233.06-3.028 314.67 1.929 34.58 2.097 59.7 9.345 68.14 30.489 31.54 79.072-224.84 229.602-295.52 383.582-17.01 37.14-23.03 73.81-12.67 108.99 57.53 195.83 580.16 149.13 653.23 378.86 10.28 32.49 9.65 65.15 2.43 98.25-32.63 149.66-205.68 297.08-144.09 472.47 22.16 63.12 55.49 76.01 90.28 131.3 5.89 9.33 11.8 19.85 17.72 31.92 76.42 156.01 41.48 337.13-4.32 472.14" stroke="url(#t)" stroke-miterlimit="10"/><path d="M1112.63 200.912C925.318 523.987 828.333 781.69 918.079 880.271c16.447 18.028 38.085 29.363 62.943 36.476 94.338 27.011 234.888-9.827 320.438-8.302 36.33.636 63.14 7.367 73.08 28.495 36.92 78.65-220.28 234.31-293.74 389.33-17.66 37.33-24.62 74.29-14.73 109.76 55.05 198.95 588.99 143.8 660.96 373.98 10.22 32.78 9.27 65.69 1.32 98.95-34.99 148.89-210.64 299.21-144.45 475.09 24.14 64.18 59.11 75.42 95.74 130.72 6.15 9.27 12.31 19.75 18.52 31.89 78.99 155.49 38.22 338.66-13.69 476.13" stroke="url(#u)" stroke-miterlimit="10"/><path d="M1090.68 210.519c-191.504 322.68-294.518 583.704-203.485 681.528 105.077 112.883 422.825-40.75 468.415 43.636 52.45 97.087-357.154 321.107-308.74 505.537 53.04 201.92 597.81 138.49 668.7 369.1 55.17 179.6-231.31 361.13-144.6 577.32 30.53 76.05 75.18 76.52 120.52 161.99 82.11 154.73 34.97 340.23-23.05 480.15" stroke="url(#v)" stroke-miterlimit="10"/><defs><linearGradient id="l" x1="740.764" y1="634.872" x2="2397.09" y2="2440.34" gradientUnits="userSpaceOnUse"><stop stop-color="#fff"/><stop offset=".48" stop-color="#F07F00"/><stop offset="1" stop-color="#fff"/></linearGradient><linearGradient id="a" x1="957.119" y1="552.577" x2="2597.35" y2="2340.5" gradientUnits="userSpaceOnUse"><stop stop-color="#fff"/><stop offset=".48" stop-color="#F07F00"/><stop offset="1" stop-color="#fff"/></linearGradient><linearGradient id="c" x1="917.784" y1="567.541" x2="2560.94" y2="2358.66" gradientUnits="userSpaceOnUse"><stop stop-color="#fff"/><stop offset=".48" stop-color="#F07F00"/><stop offset="1" stop-color="#fff"/></linearGradient><linearGradient id="d" x1="898.08" y1="575.035" x2="2542.72" y2="2367.76" gradientUnits="userSpaceOnUse"><stop stop-color="#fff"/><stop offset=".48" stop-color="#F07F00"/><stop offset="1" stop-color="#fff"/></linearGradient><linearGradient id="e" x1="878.4" y1="582.504" x2="2524.54" y2="2376.86" gradientUnits="userSpaceOnUse"><stop stop-color="#fff"/><stop offset=".48" stop-color="#F07F00"/><stop offset="1" stop-color="#fff"/></linearGradient><linearGradient id="f" x1="858.745" y1="590" x2="2506.33" y2="2385.94" gradientUnits="userSpaceOnUse"><stop stop-color="#fff"/><stop offset=".48" stop-color="#F07F00"/><stop offset="1" stop-color="#fff"/></linearGradient><linearGradient id="g" x1="839.065" y1="597.47" x2="2488.13" y2="2395.02" gradientUnits="userSpaceOnUse"><stop stop-color="#fff"/><stop offset=".48" stop-color="#F07F00"/><stop offset="1" stop-color="#fff"/></linearGradient><linearGradient id="h" x1="819.41" y1="604.965" x2="2469.93" y2="2404.1" gradientUnits="userSpaceOnUse"><stop stop-color="#fff"/><stop offset=".48" stop-color="#F07F00"/><stop offset="1" stop-color="#fff"/></linearGradient><linearGradient id="i" x1="799.755" y1="612.412" x2="2451.73" y2="2413.13" gradientUnits="userSpaceOnUse"><stop stop-color="#fff"/><stop offset=".48" stop-color="#F07F00"/><stop offset="1" stop-color="#fff"/></linearGradient><linearGradient id="j" x1="780.099" y1="619.907" x2="2433.52" y2="2422.21" gradientUnits="userSpaceOnUse"><stop stop-color="#fff"/><stop offset=".48" stop-color="#F07F00"/><stop offset="1" stop-color="#fff"/></linearGradient><linearGradient id="k" x1="760.42" y1="627.377" x2="2415.32" y2="2431.29" gradientUnits="userSpaceOnUse"><stop stop-color="#fff"/><stop offset=".48" stop-color="#F07F00"/><stop offset="1" stop-color="#fff"/></linearGradient><linearGradient id="b" x1="937.44" y1="560.046" x2="2579.15" y2="2349.58" gradientUnits="userSpaceOnUse"><stop stop-color="#fff"/><stop offset=".48" stop-color="#F07F00"/><stop offset="1" stop-color="#fff"/></linearGradient><linearGradient id="m" x1="721.11" y1="642.32" x2="2378.89" y2="2449.37" gradientUnits="userSpaceOnUse"><stop stop-color="#fff"/><stop offset=".48" stop-color="#F07F00"/><stop offset="1" stop-color="#fff"/></linearGradient><linearGradient id="n" x1="701.454" y1="649.815" x2="2360.66" y2="2458.42" gradientUnits="userSpaceOnUse"><stop stop-color="#fff"/><stop offset=".48" stop-color="#F07F00"/><stop offset="1" stop-color="#fff"/></linearGradient><linearGradient id="o" x1="681.775" y1="657.285" x2="2342.44" y2="2467.48" gradientUnits="userSpaceOnUse"><stop stop-color="#fff"/><stop offset=".48" stop-color="#F07F00"/><stop offset="1" stop-color="#fff"/></linearGradient><linearGradient id="p" x1="662.144" y1="664.757" x2="2324.21" y2="2476.48" gradientUnits="userSpaceOnUse"><stop stop-color="#fff"/><stop offset=".48" stop-color="#F07F00"/><stop offset="1" stop-color="#fff"/></linearGradient><linearGradient id="q" x1="642.465" y1="672.227" x2="2305.99" y2="2485.54" gradientUnits="userSpaceOnUse"><stop stop-color="#fff"/><stop offset=".48" stop-color="#F07F00"/><stop offset="1" stop-color="#fff"/></linearGradient><linearGradient id="r" x1="622.809" y1="679.722" x2="2287.74" y2="2494.57" gradientUnits="userSpaceOnUse"><stop stop-color="#fff"/><stop offset=".48" stop-color="#F07F00"/><stop offset="1" stop-color="#fff"/></linearGradient><linearGradient id="s" x1="603.13" y1="687.192" x2="2269.49" y2="2503.59" gradientUnits="userSpaceOnUse"><stop stop-color="#fff"/><stop offset=".48" stop-color="#F07F00"/><stop offset="1" stop-color="#fff"/></linearGradient><linearGradient id="t" x1="583.499" y1="694.665" x2="2251.26" y2="2512.6" gradientUnits="userSpaceOnUse"><stop stop-color="#fff"/><stop offset=".48" stop-color="#F07F00"/><stop offset="1" stop-color="#fff"/></linearGradient><linearGradient id="u" x1="563.82" y1="702.134" x2="2233.01" y2="2521.63" gradientUnits="userSpaceOnUse"><stop stop-color="#fff"/><stop offset=".48" stop-color="#F07F00"/><stop offset="1" stop-color="#fff"/></linearGradient><linearGradient id="v" x1="544.164" y1="709.63" x2="2214.76" y2="2530.65" gradientUnits="userSpaceOnUse"><stop stop-color="#fff"/><stop offset=".48" stop-color="#F07F00"/><stop offset="1" stop-color="#fff"/></linearGradient></defs></svg>