<svg width="2207" height="1703" viewBox="0 0 2207 1703" fill="none" xmlns="http://www.w3.org/2000/svg">
<path d="M2067.33 1702.73C1892.57 1395.66 1739.71 1314.76 1621.87 1311.01C1512.75 1307.53 1434.21 1370.23 1380.36 1327.11C1286.33 1251.82 1460.82 1008.75 1369.63 897.821C1253.19 756.202 875.671 1039.03 639.708 871.004C493.545 766.923 552.477 597.217 371.339 441.717C250.049 337.577 102.764 309.903 1.00007 302.195" stroke="url(#paint0_linear_217_97)" stroke-miterlimit="10"/>
<path d="M2073.95 1683.03C1927.99 1419.4 1796.54 1316.03 1687.39 1291.64C1668.19 1287.35 1649.73 1285.91 1632.06 1285.61C1524.83 1283.78 1447.68 1349.2 1393.65 1311.42C1376.31 1299.29 1367.33 1281.59 1364.11 1259.18C1349.84 1159.73 1450.19 977.181 1376.69 884.235C1358.26 860.962 1333.12 848.439 1302.76 843.477C1159.81 819.584 906.421 969.709 713.379 898.678C689.836 889.994 667.445 878.062 646.324 862.35C531.001 777.319 546.569 646.865 458.659 523.705C436.77 493.048 410.184 464.636 373.761 435.16C366.495 429.283 359.139 423.612 351.636 418.089C233.33 331.08 99.6624 300.423 5.84429 287.812" stroke="url(#paint1_linear_217_97)" stroke-miterlimit="10"/>
<path d="M2080.57 1663.3C1937.27 1397.22 1807.18 1288.03 1697.82 1264.91C1678.53 1260.86 1660.01 1259.74 1642.29 1260.18C1536.95 1262.87 1461.12 1328.14 1406.97 1295.71C1389.51 1285.26 1379.8 1269.37 1375.84 1247.81C1358.26 1152.47 1456.3 965.958 1383.81 870.62C1365.65 846.815 1340.8 833.672 1310.58 828.119C1166.84 801.656 912.507 963.152 719.819 891.146C696.128 882.256 673.885 869.822 652.971 853.726C540.159 766.983 555.726 632.6 463.858 513.309C440.462 482.947 413.581 457.075 376.213 428.604C368.828 422.962 361.325 417.469 353.645 412.094C233.861 327.772 102.587 291.415 10.7186 273.487" stroke="url(#paint2_linear_217_97)" stroke-miterlimit="10"/>
<path d="M2087.21 1643.6C1946.6 1375.07 1817.84 1260.06 1708.25 1238.21C1688.87 1234.37 1670.32 1233.84 1652.51 1234.78C1549.12 1240.39 1474.44 1307.08 1420.29 1280.03C1402.69 1271.23 1392.29 1257.2 1387.53 1236.44C1366.68 1145.23 1462.42 954.734 1390.87 857.034C1372.97 832.697 1348.45 818.875 1318.35 812.761C1173.84 783.433 918.532 956.566 726.229 883.615C702.39 874.518 680.295 861.612 659.617 845.072C549.168 756.852 564.735 618.364 469.056 502.883C444.125 472.787 416.978 449.514 378.665 422.017C371.162 416.642 363.511 411.326 355.653 406.039C234.393 324.405 105.481 282.377 15.6216 259.074" stroke="url(#paint3_linear_217_97)" stroke-miterlimit="10"/>
<path d="M2093.83 1623.9C1955.91 1352.92 1828.5 1232.12 1718.65 1211.54C1699.18 1207.94 1680.57 1207.94 1662.7 1209.44C1561.26 1217.95 1487.67 1286.08 1433.62 1264.38C1415.83 1257.23 1404.76 1245.03 1399.26 1225.12C1375.16 1138.06 1468.56 943.6 1397.99 843.477C1380.39 818.609 1356.13 804.107 1326.18 797.462C1180.9 765.24 924.588 950.038 732.669 876.142C708.653 866.809 686.735 853.489 666.264 836.507C558.148 746.84 573.597 604.246 474.255 492.575C447.758 462.775 420.405 442.042 381.087 415.549C373.466 410.41 365.668 405.271 357.603 400.102C234.925 321.097 108.347 273.428 20.4369 244.779" stroke="url(#paint4_linear_217_97)" stroke-miterlimit="10"/>
<path d="M2100.45 1604.2C1965.21 1330.77 1839.14 1204.15 1729.07 1184.84C1709.52 1181.44 1690.88 1182 1672.92 1184.04C1573.46 1195.32 1500.79 1265.06 1446.94 1248.69C1428.92 1243.23 1417.25 1232.83 1410.99 1213.78C1383.69 1130.88 1474.68 932.406 1405.08 829.921C1387.74 804.521 1363.81 789.34 1333.98 782.163C1187.93 747.046 930.644 943.541 739.079 868.67C714.915 859.131 693.144 845.338 672.91 827.912C567.128 736.827 582.341 590.188 479.454 482.209C451.362 452.733 423.831 434.54 383.539 409.022C375.799 404.119 367.853 399.157 359.612 394.107C235.545 317.73 111.271 264.42 25.3403 230.455" stroke="url(#paint5_linear_217_97)" stroke-miterlimit="10"/>
<path d="M2107.09 1584.5C1974.55 1308.65 1849.8 1176.22 1739.5 1158.14C1719.89 1154.98 1701.19 1156.07 1683.17 1158.67C1585.72 1172.64 1513.85 1244.14 1460.29 1233.04C1442.04 1229.26 1429.81 1220.69 1422.72 1202.47C1392.23 1123.73 1480.82 921.242 1412.17 816.365C1395.1 790.463 1371.46 774.543 1341.78 766.864C1194.96 728.824 936.699 937.014 745.489 861.198C721.178 851.452 699.525 837.216 679.527 819.347C576.049 726.845 590.937 576.218 484.624 471.901C454.907 442.721 427.258 427.038 385.961 402.583C378.104 397.917 370.01 393.162 361.591 388.2C236.136 314.393 114.166 255.53 30.1849 216.19" stroke="url(#paint6_linear_217_97)" stroke-miterlimit="10"/>
<path d="M2113.71 1564.77C1983.85 1286.47 1860.47 1148.22 1749.9 1131.41C1730.2 1128.46 1711.47 1130.08 1693.36 1133.24C1597.92 1149.84 1526.76 1223.29 1473.58 1217.33C1455.03 1215.26 1442.27 1208.5 1434.41 1191.07C1400.8 1116.53 1486.91 909.989 1419.26 802.749C1402.45 776.315 1379.15 759.717 1349.58 751.476C1202 710.482 942.578 930.781 751.929 853.607C727.441 843.684 705.965 828.975 686.203 810.634C585 716.773 599.474 562.159 489.882 461.416C458.511 432.59 430.773 419.388 388.473 395.938C380.497 391.507 372.255 386.93 363.659 382.086C236.875 310.848 117.15 246.404 35.148 201.747" stroke="url(#paint7_linear_217_97)" stroke-miterlimit="10"/>
<path d="M2120.33 1545.07C1993.16 1264.32 1871.1 1120.25 1760.3 1104.71C1740.5 1101.99 1721.75 1104.12 1703.55 1107.87C1610.12 1127.01 1539.25 1195.65 1486.88 1201.67C1468.15 1203.83 1454.77 1196.36 1446.11 1179.76C1409.42 1109.44 1493.02 898.825 1426.32 789.193C1409.78 762.227 1386.77 744.92 1357.34 736.178C1209 692.201 948.574 924.284 758.309 846.135C733.673 836.005 712.316 820.854 692.79 802.07C593.862 706.85 607.864 548.337 495.022 451.109C461.967 422.637 434.17 411.887 390.835 389.47C382.741 385.276 374.352 380.875 365.549 376.15C237.436 307.423 119.927 237.455 39.9036 187.453" stroke="url(#paint8_linear_217_97)" stroke-miterlimit="10"/>
<path d="M2126.97 1525.37C2002.46 1242.17 1881.76 1092.31 1770.75 1078.01C1750.87 1075.5 1732.09 1078.16 1713.8 1082.47C1622.35 1104.06 1552.45 1182 1500.23 1185.99C1481.06 1187.47 1467.32 1184.19 1457.87 1168.42C1418.17 1102.29 1499.19 887.661 1433.47 775.606C1417.22 748.11 1394.51 730.093 1365.2 720.849C1216.09 673.859 954.689 917.757 764.778 838.633C739.995 828.296 718.756 812.732 699.466 793.475C602.812 696.926 616.253 534.574 500.25 440.742C465.512 412.655 437.656 404.326 393.317 382.943C385.134 378.985 376.597 374.762 367.588 370.154C238.145 303.937 122.881 228.476 44.8071 173.099" stroke="url(#paint9_linear_217_97)" stroke-miterlimit="10"/>
<path d="M2133.59 1505.67C2011.77 1220.01 1892.4 1064.34 1781.15 1051.31C1761.18 1049.04 1742.37 1052.17 1723.99 1057.07C1634.52 1081.02 1565.25 1161.54 1513.55 1170.31C1494.05 1173.62 1479.88 1172.02 1469.57 1157.05C1426.88 1095.08 1505.28 876.438 1440.53 762.02C1424.55 733.992 1402.16 715.237 1372.97 705.52C1223.12 655.489 960.686 911.2 771.159 831.132C746.198 820.588 725.136 804.58 706.083 784.851C611.674 687.002 624.494 520.84 505.42 430.375C468.968 402.672 441.112 396.735 395.739 376.415C387.438 372.694 378.753 368.648 369.566 364.188C238.853 300.423 125.775 219.498 49.6811 158.804" stroke="url(#paint10_linear_217_97)" stroke-miterlimit="10"/>
<path d="M2140.21 1485.98C2021.07 1197.86 1903.06 1036.37 1791.55 1024.61C1771.52 1022.55 1752.65 1026.15 1734.21 1031.7C1646.72 1057.96 1578.12 1141.22 1526.87 1154.63C1507.08 1159.82 1492.43 1159.82 1481.29 1145.71C1435.71 1087.91 1511.42 865.244 1447.65 748.434C1431.93 719.874 1409.84 700.411 1380.8 690.163C1230.21 637.089 966.771 904.614 777.599 823.6C752.49 812.85 731.546 796.428 712.73 776.227C620.536 677.079 632.736 507.195 510.619 419.979C472.424 392.689 444.598 389.115 398.191 369.859C389.772 366.374 380.94 362.505 371.546 358.163C239.533 296.849 128.671 210.46 54.5259 144.42" stroke="url(#paint11_linear_217_97)" stroke-miterlimit="10"/>
<path d="M2146.82 1466.25C2030.38 1175.68 1913.7 1008.4 1801.95 997.885C1781.83 996.054 1762.93 1000.1 1744.4 1006.27C1658.86 1034.77 1591.03 1120.9 1540.17 1138.91C1520.08 1146.03 1504.98 1147.63 1492.99 1134.34C1444.55 1080.67 1517.51 854.021 1454.71 734.849C1439.26 705.787 1417.49 685.555 1388.57 674.834C1237.24 618.689 972.797 898.057 784.009 816.069C758.752 805.112 737.927 788.277 719.376 767.573C629.368 667.155 640.948 493.609 515.818 409.583C475.88 382.766 448.083 381.496 400.613 363.332C392.105 360.083 383.125 356.391 373.525 352.168C240.242 293.275 131.536 201.482 59.3997 130.096" stroke="url(#paint12_linear_217_97)" stroke-miterlimit="10"/>
<path d="M2153.47 1446.55C2039.71 1153.53 1924.36 980.43 1812.4 971.185C1792.2 969.561 1773.23 974.08 1754.65 980.902C1671.03 1011.59 1604.09 1100.72 1553.52 1123.26C1533.19 1132.33 1517.6 1135.46 1504.72 1123.02C1453.47 1073.43 1523.65 842.857 1461.83 721.292C1446.64 691.699 1425.2 670.758 1396.4 659.535C1244.36 600.289 978.882 891.53 790.448 808.597C765.044 797.403 744.307 780.155 726.022 759.008C638.201 657.32 649.101 480.171 521.017 399.246C479.307 372.901 451.569 373.905 403.065 356.834C394.439 353.792 385.311 350.307 375.534 346.202C241.01 289.672 134.46 192.503 64.2739 115.772" stroke="url(#paint13_linear_217_97)" stroke-miterlimit="10"/>
<path d="M2160.09 1426.85C2049.02 1131.38 1935.02 952.46 1822.8 944.486C1802.51 943.098 1783.51 948.03 1764.84 955.502C1683.11 988.286 1617.15 1080.55 1566.81 1107.58C1546.25 1118.59 1530.15 1123.23 1516.42 1111.65C1462.39 1066.11 1529.77 831.663 1468.89 707.706C1454 677.581 1432.85 655.902 1404.17 644.207C1251.42 581.829 985.056 884.589 796.829 801.095C771.277 789.635 750.658 772.033 732.639 750.384C646.974 647.455 657.195 466.733 526.186 388.85C482.703 363.007 455.025 366.226 405.487 350.277C396.773 347.471 387.497 344.164 377.483 340.176C241.689 286.01 137.325 183.495 69.0885 101.418" stroke="url(#paint14_linear_217_97)" stroke-miterlimit="10"/>
<path d="M2166.7 1407.15C2058.29 1109.23 1945.66 924.521 1833.2 917.787C1812.82 916.605 1793.76 921.951 1775.04 930.103C1695.16 964.953 1630.29 1060.41 1580.1 1091.89C1559.37 1104.92 1542.74 1111 1528.11 1100.31C1471.34 1058.73 1535.85 820.47 1475.98 694.12C1461.35 663.463 1440.53 641.046 1411.96 628.878C1258.51 563.37 991.112 878.033 803.239 793.593C777.54 781.927 757.009 763.911 739.256 741.789C655.747 637.65 665.318 453.413 531.356 378.513C486.101 353.201 458.481 358.606 407.909 343.78C399.077 341.181 389.654 338.08 379.463 334.211C242.428 282.377 140.22 174.516 73.9628 87.0938" stroke="url(#paint15_linear_217_97)" stroke-miterlimit="10"/>
<path d="M2173.35 1387.45C2067.63 1087.11 1956.32 896.551 1843.66 891.087C1823.22 890.142 1804.04 895.872 1785.32 904.732C1707.24 941.591 1643.58 1040.3 1593.52 1076.24C1572.63 1091.24 1555.44 1098.8 1539.93 1089C1480.41 1051.34 1542.09 809.305 1483.15 680.593C1468.8 649.405 1448.3 626.249 1419.85 613.579C1265.71 544.911 997.227 871.535 809.738 786.121C783.891 774.248 763.479 755.848 745.991 733.195C664.58 627.815 673.501 440.181 536.643 368.146C489.616 343.396 462.085 350.957 410.42 337.252C401.47 334.89 391.928 331.936 381.53 328.215C243.255 278.685 143.204 165.508 78.8963 72.7397" stroke="url(#paint16_linear_217_97)" stroke-miterlimit="10"/>
<path d="M2179.97 1367.72C2076.93 1064.93 1966.99 868.552 1854.05 864.358C1833.52 863.62 1814.26 869.763 1795.51 879.303C1719.21 918.141 1656.85 1020.09 1606.81 1060.53C1585.78 1077.51 1567.99 1086.52 1551.6 1077.6C1489.33 1043.78 1548.14 798.053 1490.21 666.948C1476.12 635.228 1455.95 611.334 1427.65 598.192C1272.83 526.334 1003.28 864.919 816.178 778.56C790.183 766.48 769.859 747.667 752.638 724.541C673.323 617.98 681.624 426.92 541.842 357.75C493.013 333.59 465.571 343.248 412.872 330.696C403.833 328.54 394.114 325.793 383.539 322.219C244.023 274.964 146.099 156.53 83.7996 58.4155" stroke="url(#paint17_linear_217_97)" stroke-miterlimit="10"/>
<path d="M2186.58 1348.02C2086.24 1042.78 1977.62 840.612 1864.45 837.659C1843.83 837.157 1824.49 843.655 1805.7 853.933C1731.11 894.72 1670.17 999.952 1620.1 1044.84C1598.95 1063.81 1580.58 1074.23 1563.3 1066.26C1498.25 1036.22 1554.26 786.859 1497.27 653.363C1483.45 621.111 1463.6 596.479 1435.42 582.863C1279.95 507.786 1009.31 858.363 822.558 771.029C796.415 758.742 776.18 739.515 759.225 715.887C681.978 608.115 689.688 413.747 546.982 347.324C496.351 323.755 468.997 335.51 415.264 324.139C406.107 322.19 396.241 319.62 385.459 316.194C244.702 271.213 148.934 147.492 88.5847 44.0322" stroke="url(#paint18_linear_217_97)" stroke-miterlimit="10"/>
<path d="M2193.2 1328.32C2095.54 1020.63 1988.25 812.643 1874.85 810.959C1854.14 810.664 1834.68 817.516 1815.89 828.532C1742.96 871.24 1683.52 979.75 1633.39 1029.16C1612.15 1050.1 1593.13 1061.95 1574.99 1054.92C1507.17 1028.63 1560.34 775.695 1504.36 639.806C1490.83 607.052 1471.28 581.622 1443.22 567.564C1287.1 489.267 1015.33 851.835 828.968 763.556C802.648 751.033 782.502 731.422 765.871 707.322C690.693 598.369 697.812 400.693 552.181 337.016C499.778 314.097 472.483 327.89 417.716 317.671C408.47 315.958 398.456 313.565 387.468 310.258C245.47 267.491 151.859 138.543 93.459 29.7666" stroke="url(#paint19_linear_217_97)" stroke-miterlimit="10"/>
<path d="M2199.85 1308.62C2104.88 998.475 1998.92 784.703 1885.31 784.26C1864.51 784.201 1844.93 791.407 1826.14 803.162C1754.83 847.76 1696.99 959.548 1646.75 1013.51C1625.42 1036.43 1605.74 1049.66 1586.75 1043.6C1516.09 1021.01 1566.52 764.531 1511.48 626.249C1498.22 592.964 1479.02 566.767 1451.04 552.235C1294.4 470.513 1021.42 845.308 835.408 756.054C808.94 743.325 788.824 723.359 772.518 698.698C699.171 588.681 705.965 387.639 557.38 326.62C503.175 304.351 475.969 320.152 420.139 311.114C410.774 309.608 400.642 307.393 389.447 304.233C246.297 263.416 154.754 129.535 98.333 15.3833" stroke="url(#paint20_linear_217_97)" stroke-miterlimit="10"/>
<path d="M2206.46 1288.89C2114.15 976.295 2009.58 756.704 1895.71 757.531C1764.28 758.506 1677.7 1052.61 1598.45 1032.2C1507.26 1008.72 1602.55 614.317 1458.84 536.878C1301.49 452.113 1027.47 838.722 841.818 748.523C697.251 678.26 748.295 387.786 562.579 316.224C497.237 291.06 471.213 319.414 391.426 298.208C246.947 259.842 157.619 120.497 103.178 1" stroke="url(#paint21_linear_217_97)" stroke-miterlimit="10"/>
<defs>
<linearGradient id="paint0_linear_217_97" x1="2068.6" y1="1002.05" x2="0.881844" y2="1002.05" gradientUnits="userSpaceOnUse">
<stop stop-color="white"/>
<stop offset="0.48" stop-color="#F07F00"/>
<stop offset="1" stop-color="white"/>
</linearGradient>
<linearGradient id="paint1_linear_217_97" x1="2075.25" y1="985.037" x2="5.66704" y2="985.037" gradientUnits="userSpaceOnUse">
<stop stop-color="white"/>
<stop offset="0.48" stop-color="#F07F00"/>
<stop offset="1" stop-color="white"/>
</linearGradient>
<linearGradient id="paint2_linear_217_97" x1="2081.87" y1="968.025" x2="10.4527" y2="968.025" gradientUnits="userSpaceOnUse">
<stop stop-color="white"/>
<stop offset="0.48" stop-color="#F07F00"/>
<stop offset="1" stop-color="white"/>
</linearGradient>
<linearGradient id="paint3_linear_217_97" x1="2088.51" y1="950.983" x2="15.2376" y2="950.983" gradientUnits="userSpaceOnUse">
<stop stop-color="white"/>
<stop offset="0.48" stop-color="#F07F00"/>
<stop offset="1" stop-color="white"/>
</linearGradient>
<linearGradient id="paint4_linear_217_97" x1="2095.16" y1="933.971" x2="19.994" y2="933.971" gradientUnits="userSpaceOnUse">
<stop stop-color="white"/>
<stop offset="0.48" stop-color="#F07F00"/>
<stop offset="1" stop-color="white"/>
</linearGradient>
<linearGradient id="paint5_linear_217_97" x1="2101.77" y1="916.96" x2="24.7791" y2="916.96" gradientUnits="userSpaceOnUse">
<stop stop-color="white"/>
<stop offset="0.48" stop-color="#F07F00"/>
<stop offset="1" stop-color="white"/>
</linearGradient>
<linearGradient id="paint6_linear_217_97" x1="2108.42" y1="899.948" x2="29.5645" y2="899.948" gradientUnits="userSpaceOnUse">
<stop stop-color="white"/>
<stop offset="0.48" stop-color="#F07F00"/>
<stop offset="1" stop-color="white"/>
</linearGradient>
<linearGradient id="paint7_linear_217_97" x1="2115.04" y1="882.935" x2="34.3503" y2="882.935" gradientUnits="userSpaceOnUse">
<stop stop-color="white"/>
<stop offset="0.48" stop-color="#F07F00"/>
<stop offset="1" stop-color="white"/>
</linearGradient>
<linearGradient id="paint8_linear_217_97" x1="2121.68" y1="865.953" x2="39.1651" y2="865.953" gradientUnits="userSpaceOnUse">
<stop stop-color="white"/>
<stop offset="0.48" stop-color="#F07F00"/>
<stop offset="1" stop-color="white"/>
</linearGradient>
<linearGradient id="paint9_linear_217_97" x1="2128.3" y1="848.941" x2="43.9505" y2="848.941" gradientUnits="userSpaceOnUse">
<stop stop-color="white"/>
<stop offset="0.48" stop-color="#F07F00"/>
<stop offset="1" stop-color="white"/>
</linearGradient>
<linearGradient id="paint10_linear_217_97" x1="2134.95" y1="831.929" x2="48.7359" y2="831.929" gradientUnits="userSpaceOnUse">
<stop stop-color="white"/>
<stop offset="0.48" stop-color="#F07F00"/>
<stop offset="1" stop-color="white"/>
</linearGradient>
<linearGradient id="paint11_linear_217_97" x1="2141.57" y1="814.917" x2="53.551" y2="814.917" gradientUnits="userSpaceOnUse">
<stop stop-color="white"/>
<stop offset="0.48" stop-color="#F07F00"/>
<stop offset="1" stop-color="white"/>
</linearGradient>
<linearGradient id="paint12_linear_217_97" x1="2148.21" y1="797.935" x2="58.3657" y2="797.935" gradientUnits="userSpaceOnUse">
<stop stop-color="white"/>
<stop offset="0.48" stop-color="#F07F00"/>
<stop offset="1" stop-color="white"/>
</linearGradient>
<linearGradient id="paint13_linear_217_97" x1="2154.83" y1="780.923" x2="63.181" y2="780.923" gradientUnits="userSpaceOnUse">
<stop stop-color="white"/>
<stop offset="0.48" stop-color="#F07F00"/>
<stop offset="1" stop-color="white"/>
</linearGradient>
<linearGradient id="paint14_linear_217_97" x1="2161.47" y1="763.911" x2="67.9956" y2="763.911" gradientUnits="userSpaceOnUse">
<stop stop-color="white"/>
<stop offset="0.48" stop-color="#F07F00"/>
<stop offset="1" stop-color="white"/>
</linearGradient>
<linearGradient id="paint15_linear_217_97" x1="2168.09" y1="746.928" x2="72.8404" y2="746.928" gradientUnits="userSpaceOnUse">
<stop stop-color="white"/>
<stop offset="0.48" stop-color="#F07F00"/>
<stop offset="1" stop-color="white"/>
</linearGradient>
<linearGradient id="paint16_linear_217_97" x1="2174.74" y1="729.916" x2="77.6556" y2="729.916" gradientUnits="userSpaceOnUse">
<stop stop-color="white"/>
<stop offset="0.48" stop-color="#F07F00"/>
<stop offset="1" stop-color="white"/>
</linearGradient>
<linearGradient id="paint17_linear_217_97" x1="2181.35" y1="712.904" x2="82.4999" y2="712.904" gradientUnits="userSpaceOnUse">
<stop stop-color="white"/>
<stop offset="0.48" stop-color="#F07F00"/>
<stop offset="1" stop-color="white"/>
</linearGradient>
<linearGradient id="paint18_linear_217_97" x1="2188" y1="695.892" x2="87.3441" y2="695.892" gradientUnits="userSpaceOnUse">
<stop stop-color="white"/>
<stop offset="0.48" stop-color="#F07F00"/>
<stop offset="1" stop-color="white"/>
</linearGradient>
<linearGradient id="paint19_linear_217_97" x1="2194.62" y1="678.91" x2="92.1888" y2="678.91" gradientUnits="userSpaceOnUse">
<stop stop-color="white"/>
<stop offset="0.48" stop-color="#F07F00"/>
<stop offset="1" stop-color="white"/>
</linearGradient>
<linearGradient id="paint20_linear_217_97" x1="2201.26" y1="661.898" x2="97.0333" y2="661.898" gradientUnits="userSpaceOnUse">
<stop stop-color="white"/>
<stop offset="0.48" stop-color="#F07F00"/>
<stop offset="1" stop-color="white"/>
</linearGradient>
<linearGradient id="paint21_linear_217_97" x1="2207.88" y1="644.886" x2="101.878" y2="644.886" gradientUnits="userSpaceOnUse">
<stop stop-color="white"/>
<stop offset="0.48" stop-color="#F07F00"/>
<stop offset="1" stop-color="white"/>
</linearGradient>
</defs>
</svg>
