<svg width="1964" height="1702" fill="none" xmlns="http://www.w3.org/2000/svg"><g clip-path="url(#a)" stroke-miterlimit="10"><path d="M1968.99 1701.73c-178.96-307.97-335.5-389.11-456.17-392.87-111.74-3.5-192.17 59.39-247.32 16.14-96.28-75.5 82.4-319.29-10.98-430.544-119.24-142.035-505.83 141.624-747.463-26.896-149.675-104.387-89.327-274.592-274.818-430.549C108.034 332.566-42.791 304.811-147 297.08" stroke="url(#b)"/><path d="M1975.76 1681.97c-149.46-264.4-284.07-368.07-395.84-392.54-19.66-4.3-38.57-5.75-56.66-6.04-109.81-1.84-188.82 63.77-244.14 25.88-17.76-12.17-26.96-29.91-30.25-52.4-14.61-99.73 88.14-282.822 12.88-376.04-18.87-23.342-44.62-35.901-75.71-40.878-146.38-23.964-405.86 126.602-603.541 55.363-24.109-8.709-47.038-20.676-68.667-36.435-118.094-85.28-102.153-216.118-192.175-339.64-22.415-30.747-49.64-59.242-86.938-88.805a625.642 625.642 0 0 0-22.657-17.121c-121.15-87.265-258.029-118.012-354.101-130.66" stroke="url(#c)"/><path d="M1982.54 1662.19c-146.74-266.86-279.96-376.38-391.94-399.57-19.76-4.06-38.72-5.18-56.87-4.74-107.87 2.7-185.52 68.16-240.97 35.64-17.88-10.49-27.83-26.43-31.88-48.05-18-95.62 82.4-282.677 8.16-378.295-18.6-23.875-44.04-37.057-74.99-42.626-147.19-26.541-407.638 135.43-604.957 63.212-24.26-8.916-47.038-21.386-68.454-37.53-115.524-86.998-99.582-221.776-193.658-341.417-23.958-30.451-51.485-56.399-89.751-84.954a684.769 684.769 0 0 0-23.111-16.559C91.457 322.732-42.971 286.268-137.048 268.288" stroke="url(#d)"/><path d="M1989.35 1642.43c-143.99-269.32-275.85-384.67-388.08-406.59-19.84-3.85-38.84-4.38-57.08-3.43-105.87 5.63-182.34 72.51-237.79 45.38-18.03-8.83-28.68-22.9-33.55-43.72-21.35-91.48 76.69-282.534 3.42-380.522-18.33-24.408-43.44-38.271-74.26-44.402-147.98-29.414-409.428 144.227-606.353 71.062-24.411-9.124-47.038-22.068-68.213-38.656-113.103-88.48-97.162-227.375-195.14-343.195-25.531-30.184-53.33-53.526-92.564-81.103a977.59 977.59 0 0 0-23.564-16.026C92.001 319.355-40.008 277.203-132.027 253.832" stroke="url(#e)"/><path d="M1996.12 1622.67c-141.23-271.78-271.7-392.93-384.2-413.57-19.93-3.62-38.99-3.62-57.29-2.11-103.88 8.53-179.23 76.87-234.59 55.1-18.21-7.17-29.55-19.4-35.18-39.37-24.68-87.32 70.97-282.351-1.3-382.768-18.03-24.941-42.86-39.485-73.53-46.15-148.77-32.317-411.247 153.025-607.778 78.912-24.593-9.361-47.038-22.72-68.001-39.752-110.714-89.931-94.893-232.943-196.623-344.942-27.133-29.888-55.144-50.683-95.407-77.253a1236.117 1236.117 0 0 0-24.048-15.492C92.546 316.038-37.073 268.228-127.096 239.496" stroke="url(#f)"/><path d="M2002.9 1602.91c-138.48-274.23-267.59-401.22-380.3-420.59-20.03-3.41-39.11-2.85-57.5-.8-101.85 11.31-176.27 81.25-231.41 64.84-18.46-5.48-30.4-15.91-36.82-35.01-27.95-83.15 65.22-282.207-6.05-384.994-17.75-25.474-42.26-40.7-72.81-47.898-149.55-35.22-413.026 161.852-609.195 86.761-24.744-9.567-47.038-23.401-67.759-40.877-108.323-91.353-92.745-238.424-198.104-346.72-28.767-29.562-56.96-47.809-98.221-73.402a1945.382 1945.382 0 0 0-24.502-14.959C93.181 312.66-34.079 259.194-122.075 225.129" stroke="url(#g)"/><path d="M2009.7 1583.16c-135.73-276.67-263.47-409.49-376.42-427.62-20.09-3.17-39.24-2.07-57.69.53-99.79 14.01-173.39 85.73-228.23 74.59-18.69-3.79-31.22-12.38-38.48-30.66-31.22-78.97 59.5-282.054-10.8-387.24-17.48-25.978-41.68-41.944-72.08-49.646-150.34-38.152-414.814 170.649-610.62 94.611-24.895-9.775-47.068-24.053-67.547-41.974-105.965-92.774-90.719-243.843-199.587-348.466-30.431-29.267-58.745-44.996-101.034-69.522-8.046-4.68-16.334-9.449-24.956-14.426-128.47-74.024-253.37-133.059-339.37-172.515" stroke="url(#h)"/><path d="M2016.48 1563.37c-132.98-279.13-259.33-417.78-372.55-434.64-20.18-2.96-39.36-1.33-57.9 1.84-97.74 16.65-170.61 90.31-225.06 84.33-18.99-2.07-32.06-8.86-40.11-26.33-34.42-74.77 53.75-281.91-15.52-389.466-17.21-26.511-41.08-43.158-71.36-51.423-151.12-41.114-416.775 179.832-612.005 102.431-25.077-9.952-47.069-24.704-67.306-43.099-103.635-94.137-88.813-249.205-201.038-350.244-32.126-28.911-60.53-42.151-103.847-65.671a4694.826 4694.826 0 0 1-25.41-13.892C94.543 305.759-28.059 241.125-112.032 196.337" stroke="url(#i)"/><path d="M2023.26 1543.61c-130.23-281.58-255.22-426.07-368.69-441.66-20.26-2.72-39.47-.59-58.11 3.17-95.67 19.2-168.24 88.04-221.88 94.08-19.17 2.16-32.88-5.33-41.74-21.98-37.57-70.53 48.04-281.757-20.27-391.712-16.94-27.045-40.5-44.403-70.63-53.171-151.91-44.106-418.594 188.66-613.432 110.281-25.228-10.16-47.098-25.356-67.093-44.195-101.306-95.5-86.968-254.478-202.521-351.992-33.85-28.555-62.314-39.337-106.691-61.82a2008.715 2008.715 0 0 1-25.893-13.359C95.117 302.322-25.215 232.149-107.162 182" stroke="url(#j)"/><path d="M2030.06 1523.85c-127.5-284.04-251.1-434.34-364.78-448.67-20.36-2.52-39.59.14-58.32 4.47-93.65 21.65-165.22 99.82-218.7 103.82-19.63 1.48-33.7-1.8-43.38-17.62-40.66-66.32 42.32-281.584-24.99-393.967-16.63-27.578-39.9-45.647-69.9-54.919-152.7-47.127-420.382 197.487-614.857 118.131-25.379-10.368-47.129-25.978-66.882-45.291-98.976-96.833-85.213-259.662-204.003-353.77-35.573-28.17-64.099-36.523-109.503-57.969a1327.296 1327.296 0 0 1-26.348-12.826C95.844 298.828-22.19 223.145-102.14 167.604" stroke="url(#k)"/><path d="M2036.84 1504.1c-124.75-286.5-246.99-442.64-360.91-455.7-20.45-2.28-39.72.86-58.53 5.78-91.63 24.02-162.56 104.77-215.5 113.56-19.97 3.32-34.49 1.72-45.04-13.3-43.71-62.14 36.57-281.43-29.74-396.183-16.36-28.111-39.29-46.921-69.18-56.666-153.45-50.179-422.192 206.284-616.273 125.98-25.561-10.575-47.129-26.63-66.64-46.417-96.678-98.136-83.549-264.786-205.485-355.517-37.328-27.785-65.854-33.739-112.317-54.118a979.183 979.183 0 0 1-26.801-12.264C96.569 295.303-19.226 214.14-97.149 153.268" stroke="url(#l)"/><path d="M2043.61 1484.34c-121.99-288.96-242.84-450.93-357.03-462.72-20.51-2.07-39.84 1.54-58.72 7.11-89.6 26.33-159.83 109.84-212.32 123.28-20.26 5.22-35.27 5.22-46.67-8.94-46.68-57.97 30.85-281.286-34.46-398.439-16.09-28.644-38.72-48.165-68.45-58.444-154.21-53.229-423.98 215.082-617.698 133.83-25.713-10.782-47.159-27.251-66.428-47.513-94.409-99.439-81.916-269.822-206.968-357.294-39.113-27.37-67.608-30.954-115.13-50.267a743.78 743.78 0 0 1-27.285-11.731C97.265 291.718-16.261 205.075-92.188 138.842" stroke="url(#m)"/><path d="M2050.39 1464.55c-119.24-291.42-238.73-459.19-353.16-469.737-20.6-1.836-39.96 2.222-58.93 8.417-87.6 28.58-157.06 114.96-209.15 133.03-20.57 7.13-36.02 8.73-48.3-4.6-49.61-53.82 25.1-281.133-39.21-400.656-15.82-29.147-38.11-49.438-67.73-60.19-154.97-56.311-425.759 223.879-619.085 141.65-25.863-10.99-47.189-27.874-66.186-48.639-92.17-100.713-80.312-274.769-208.45-359.042-40.897-26.896-69.362-28.17-117.973-46.387-8.712-3.258-17.908-6.961-27.739-11.197C97.991 288.134-13.328 196.07-87.197 124.475" stroke="url(#n)"/><path d="M2057.2 1444.79c-116.49-293.87-234.62-467.483-349.27-476.754-20.69-1.63-40.11 2.903-59.13 9.745-85.64 30.779-154.19 120.179-205.97 142.779-20.81 9.09-36.79 12.23-49.98-.24-52.48-49.73 19.39-280.99-43.92-402.912-15.55-29.68-37.51-50.682-67-61.938-155.69-59.421-427.548 232.676-620.51 149.499-26.014-11.226-47.25-28.525-65.974-49.734-89.932-101.987-78.77-279.656-209.932-360.819-42.713-26.423-71.117-25.415-120.787-42.537a521.88 521.88 0 0 1-28.193-10.663C98.778 284.52-10.332 187.065-82.206 110.109" stroke="url(#o)"/><path d="M2063.97 1425.04c-113.74-296.34-230.47-475.784-345.39-483.782-20.78-1.392-40.23 3.554-59.35 11.049-83.7 32.88-151.25 125.413-202.79 152.523-21.05 11.05-37.54 15.7-51.61 4.09-55.32-45.68 13.68-280.816-48.67-405.137-15.24-30.214-36.9-51.957-66.27-63.687-156.43-62.56-429.186 241.09-621.936 157.35-26.166-11.494-47.28-29.148-65.733-50.86-87.724-103.231-77.257-284.485-211.414-362.597-44.527-25.919-72.871-22.69-123.6-38.686-8.923-2.814-18.422-6.131-28.677-10.13C99.473 280.847-7.399 178.031-77.275 95.713" stroke="url(#p)"/><path d="M2070.75 1405.28c-111.02-298.79-226.36-484.046-341.52-490.8-20.87-1.185-40.38 4.177-59.56 12.352-81.8 34.954-148.22 130.688-199.62 162.268-21.23 13.06-38.26 19.16-53.24 8.44-58.14-41.71 7.93-280.663-53.39-407.383-14.97-30.747-36.3-53.23-65.55-65.434-157.15-65.7-430.965 249.887-623.352 165.199-26.317-11.701-47.341-29.77-65.521-51.956-85.515-104.445-75.714-289.224-212.896-364.344-46.342-25.386-74.626-19.965-126.413-34.835a404.633 404.633 0 0 1-29.13-9.597C100.23 277.204-4.434 169.026-72.284 81.347" stroke="url(#q)"/><path d="M2077.55 1385.52c-108.26-301.22-222.24-492.338-337.61-497.818-20.93-.947-40.57 4.799-59.74 13.686-79.95 36.967-145.14 135.962-196.41 172.012-21.39 15.05-39 22.63-54.88 12.8-60.95-37.77 2.21-280.519-58.14-409.61-14.7-31.28-35.69-54.503-64.82-67.211-157.84-68.87-432.783 258.714-624.777 173.049-26.468-11.908-47.371-30.362-65.278-53.082-83.368-105.689-74.233-293.875-214.379-366.121-48.158-24.823-76.35-17.24-129.257-30.984-9.165-2.37-18.936-5.332-29.584-9.065C101.077 273.501-1.378 159.992-67.232 66.951" stroke="url(#r)"/><path d="M2084.33 1365.73c-105.51-303.68-218.1-500.629-333.74-504.835-21.03-.741-40.75 5.42-59.96 14.988-78.13 38.952-141.99 141.207-193.23 181.757-21.54 17.03-39.75 26.07-56.54 17.12-63.77-33.91-3.54-280.366-62.86-411.855-14.43-31.814-35.09-55.777-64.07-68.959-158.53-72.069-434.562 267.511-626.163 180.898-26.619-12.115-47.431-30.984-65.067-54.177-81.22-106.875-72.72-298.496-215.861-367.869-50.002-24.231-78.104-14.545-132.069-27.134-9.257-2.162-19.209-4.917-30.038-8.501C101.863 269.769 1.586 150.987-62.211 52.584" stroke="url(#s)"/><path d="M2091.11 1345.98c-102.76-306.14-213.99-508.901-329.88-511.863-21.11-.504-40.92 6.013-60.16 16.321-76.38 40.907-138.79 146.449-190.06 191.472-21.66 19.02-40.47 29.47-58.17 21.48-66.61-30.13-9.26-280.222-67.61-414.111-14.16-32.347-34.48-57.051-63.34-70.707-159.2-75.297-436.351 276.309-627.589 188.719-26.771-12.323-47.492-31.606-64.855-55.304-79.103-108.088-71.208-303.027-217.344-369.646-51.847-23.638-79.858-11.849-134.882-23.253-9.378-1.955-19.481-4.532-30.522-7.968C102.558 266.007 4.489 141.922-57.311 38.158" stroke="url(#t)"/><path d="M2097.88 1326.22c-100-308.6-209.87-517.193-326-518.881-21.2-.296-41.14 6.576-60.38 17.625-74.68 42.832-135.54 151.662-186.88 201.216-21.75 21-41.23 32.88-59.8 25.83-69.45-26.36-15.01-280.039-72.33-416.327-13.85-32.851-33.88-58.355-62.61-72.455-159.87-78.526-438.17 285.107-629.015 196.569-26.952-12.56-47.582-32.229-64.613-56.4-76.985-109.273-69.695-307.53-218.826-371.394-53.662-22.986-81.613-9.153-137.696-19.402-9.468-1.718-19.722-4.117-30.975-7.435C103.345 262.274 7.485 132.947-52.319 23.851" stroke="url(#u)"/><path d="M2104.69 1306.46c-97.25-311.054-205.76-525.454-322.1-525.898-21.3-.06-41.35 7.168-60.59 18.957-73.02 44.729-132.25 156.846-183.71 210.961-21.84 22.99-41.98 36.26-61.43 30.19-72.36-22.66-20.72-279.896-77.08-418.583-13.58-33.384-33.24-59.658-61.89-74.232-160.41-81.962-439.948 293.934-630.43 204.418-27.104-12.767-47.704-32.791-64.402-57.525-75.109-110.34-68.152-311.973-220.307-373.171-55.508-22.335-83.368-6.487-140.54-15.551-9.589-1.511-19.965-3.733-31.429-6.902C104.192 258.187 10.449 123.913-47.328 9.426" stroke="url(#v)"/><path d="M2111.46 1286.67c-94.53-313.51-201.61-533.745-318.22-532.916-134.58.978-223.24 295.946-304.4 275.476-93.38-23.55 4.2-419.11-142.96-496.778-161.14-85.014-441.737 302.731-631.856 212.267-148.041-70.469-95.77-361.796-285.949-433.569-66.912-25.238-93.562 3.199-175.266-18.069C104.858 254.603 13.383 114.848-42.367-5" stroke="url(#w)"/></g><defs><linearGradient id="m" x1="2045.01" y1="811.309" x2="-93.186" y2="811.309" gradientUnits="userSpaceOnUse"><stop stop-color="#fff"/><stop offset=".48" stop-color="#F07F00"/><stop offset="1" stop-color="#fff"/></linearGradient><linearGradient id="b" x1="1970.29" y1="998.99" x2="-147.121" y2="998.99" gradientUnits="userSpaceOnUse"><stop stop-color="#fff"/><stop offset=".48" stop-color="#F07F00"/><stop offset="1" stop-color="#fff"/></linearGradient><linearGradient id="d" x1="1983.87" y1="964.866" x2="-137.32" y2="964.866" gradientUnits="userSpaceOnUse"><stop stop-color="#fff"/><stop offset=".48" stop-color="#F07F00"/><stop offset="1" stop-color="#fff"/></linearGradient><linearGradient id="e" x1="1990.68" y1="947.774" x2="-132.42" y2="947.774" gradientUnits="userSpaceOnUse"><stop stop-color="#fff"/><stop offset=".48" stop-color="#F07F00"/><stop offset="1" stop-color="#fff"/></linearGradient><linearGradient id="f" x1="1997.48" y1="930.713" x2="-127.55" y2="930.713" gradientUnits="userSpaceOnUse"><stop stop-color="#fff"/><stop offset=".48" stop-color="#F07F00"/><stop offset="1" stop-color="#fff"/></linearGradient><linearGradient id="g" x1="2004.26" y1="913.651" x2="-122.65" y2="913.651" gradientUnits="userSpaceOnUse"><stop stop-color="#fff"/><stop offset=".48" stop-color="#F07F00"/><stop offset="1" stop-color="#fff"/></linearGradient><linearGradient id="h" x1="2011.07" y1="896.589" x2="-117.749" y2="896.589" gradientUnits="userSpaceOnUse"><stop stop-color="#fff"/><stop offset=".48" stop-color="#F07F00"/><stop offset="1" stop-color="#fff"/></linearGradient><linearGradient id="i" x1="2017.84" y1="879.527" x2="-112.848" y2="879.527" gradientUnits="userSpaceOnUse"><stop stop-color="#fff"/><stop offset=".48" stop-color="#F07F00"/><stop offset="1" stop-color="#fff"/></linearGradient><linearGradient id="j" x1="2024.65" y1="862.494" x2="-107.918" y2="862.494" gradientUnits="userSpaceOnUse"><stop stop-color="#fff"/><stop offset=".48" stop-color="#F07F00"/><stop offset="1" stop-color="#fff"/></linearGradient><linearGradient id="k" x1="2031.42" y1="845.433" x2="-103.017" y2="845.433" gradientUnits="userSpaceOnUse"><stop stop-color="#fff"/><stop offset=".48" stop-color="#F07F00"/><stop offset="1" stop-color="#fff"/></linearGradient><linearGradient id="l" x1="2038.23" y1="828.371" x2="-98.117" y2="828.371" gradientUnits="userSpaceOnUse"><stop stop-color="#fff"/><stop offset=".48" stop-color="#F07F00"/><stop offset="1" stop-color="#fff"/></linearGradient><linearGradient id="c" x1="1977.1" y1="981.928" x2="-142.221" y2="981.928" gradientUnits="userSpaceOnUse"><stop stop-color="#fff"/><stop offset=".48" stop-color="#F07F00"/><stop offset="1" stop-color="#fff"/></linearGradient><linearGradient id="n" x1="2051.81" y1="794.276" x2="-88.256" y2="794.276" gradientUnits="userSpaceOnUse"><stop stop-color="#fff"/><stop offset=".48" stop-color="#F07F00"/><stop offset="1" stop-color="#fff"/></linearGradient><linearGradient id="o" x1="2058.59" y1="777.214" x2="-83.325" y2="777.214" gradientUnits="userSpaceOnUse"><stop stop-color="#fff"/><stop offset=".48" stop-color="#F07F00"/><stop offset="1" stop-color="#fff"/></linearGradient><linearGradient id="p" x1="2065.39" y1="760.152" x2="-78.394" y2="760.152" gradientUnits="userSpaceOnUse"><stop stop-color="#fff"/><stop offset=".48" stop-color="#F07F00"/><stop offset="1" stop-color="#fff"/></linearGradient><linearGradient id="q" x1="2072.17" y1="743.12" x2="-73.433" y2="743.12" gradientUnits="userSpaceOnUse"><stop stop-color="#fff"/><stop offset=".48" stop-color="#F07F00"/><stop offset="1" stop-color="#fff"/></linearGradient><linearGradient id="r" x1="2078.98" y1="726.058" x2="-68.502" y2="726.058" gradientUnits="userSpaceOnUse"><stop stop-color="#fff"/><stop offset=".48" stop-color="#F07F00"/><stop offset="1" stop-color="#fff"/></linearGradient><linearGradient id="s" x1="2085.75" y1="708.996" x2="-63.542" y2="708.996" gradientUnits="userSpaceOnUse"><stop stop-color="#fff"/><stop offset=".48" stop-color="#F07F00"/><stop offset="1" stop-color="#fff"/></linearGradient><linearGradient id="t" x1="2092.56" y1="691.934" x2="-58.581" y2="691.934" gradientUnits="userSpaceOnUse"><stop stop-color="#fff"/><stop offset=".48" stop-color="#F07F00"/><stop offset="1" stop-color="#fff"/></linearGradient><linearGradient id="u" x1="2099.33" y1="674.901" x2="-53.62" y2="674.901" gradientUnits="userSpaceOnUse"><stop stop-color="#fff"/><stop offset=".48" stop-color="#F07F00"/><stop offset="1" stop-color="#fff"/></linearGradient><linearGradient id="v" x1="2106.14" y1="657.84" x2="-48.659" y2="657.84" gradientUnits="userSpaceOnUse"><stop stop-color="#fff"/><stop offset=".48" stop-color="#F07F00"/><stop offset="1" stop-color="#fff"/></linearGradient><linearGradient id="w" x1="2112.92" y1="640.778" x2="-43.698" y2="640.778" gradientUnits="userSpaceOnUse"><stop stop-color="#fff"/><stop offset=".48" stop-color="#F07F00"/><stop offset="1" stop-color="#fff"/></linearGradient><clipPath id="a"><path fill="#fff" d="M0 0h1964v1702H0z"/></clipPath></defs></svg>